<svg width="11" height="13" viewBox="0 0 11 13" fill="none" xmlns="http://www.w3.org/2000/svg">
<mask id="path-1-inside-1" fill="white">
<path fill-rule="evenodd" clip-rule="evenodd" d="M5.5 7C7.433 7 9 5.433 9 3.5C9 1.567 7.433 0 5.5 0C3.567 0 2 1.567 2 3.5C2 5.433 3.567 7 5.5 7ZM5 8C2.23858 8 0 10.2386 0 13H11C11 10.2386 8.76142 8 6 8H5Z"/>
</mask>
<path d="M0 13H-1V14H0V13ZM11 13V14H12V13H11ZM8 3.5C8 4.88071 6.88071 6 5.5 6V8C7.98528 8 10 5.98528 10 3.5H8ZM5.5 1C6.88071 1 8 2.11929 8 3.5H10C10 1.01472 7.98528 -1 5.5 -1V1ZM3 3.5C3 2.11929 4.11929 1 5.5 1V-1C3.01472 -1 1 1.01472 1 3.5H3ZM5.5 6C4.11929 6 3 4.88071 3 3.5H1C1 5.98528 3.01472 8 5.5 8V6ZM1 13C1 10.7909 2.79086 9 5 9V7C1.68629 7 -1 9.68629 -1 13H1ZM11 12H0V14H11V12ZM6 9C8.20914 9 10 10.7909 10 13H12C12 9.68629 9.31371 7 6 7V9ZM5 9H6V7H5V9Z" fill="#AD131C" mask="url(#path-1-inside-1)"/>
</svg>
