<svg width="80" height="50" viewBox="0 0 80 50" fill="none" xmlns="http://www.w3.org/2000/svg">
<g opacity="0.6" clip-path="url(#clip0)">
<path d="M1.15025 29.1999C0.935249 29.2099 0.724249 29.1389 0.560249 28.9999C0.420249 28.8329 0.355249 28.6159 0.380249 28.3999V7.99994C0.355249 7.78394 0.420249 7.56694 0.560249 7.39994C0.726249 7.27394 0.932249 7.21394 1.14025 7.22994H3.36025C3.78025 7.18794 4.15825 7.48294 4.22025 7.89994L4.44025 8.69994C5.07925 8.08294 5.83425 7.59694 6.66025 7.26994C7.50525 6.92794 8.40825 6.75094 9.32025 6.74994C11.1382 6.68994 12.8762 7.49894 14.0002 8.92994C15.2382 10.6359 15.8532 12.7149 15.7402 14.8199C15.7742 16.3479 15.4812 17.8649 14.8802 19.2699C14.3842 20.4399 13.5782 21.4529 12.5502 22.1999C11.5562 22.8779 10.3732 23.2279 9.17025 23.1999C8.35325 23.2039 7.54125 23.0689 6.77025 22.7999C6.06125 22.5619 5.40625 22.1879 4.84025 21.6999V28.4199C4.86225 28.6339 4.80225 28.8489 4.67025 29.0199C4.49925 29.1519 4.28425 29.2119 4.07025 29.1899L1.15025 29.1999ZM7.88025 19.8399C8.86825 19.9109 9.82425 19.4689 10.4102 18.6699C11.0332 17.5519 11.3152 16.2759 11.2202 14.9999C11.3162 13.7119 11.0382 12.4239 10.4202 11.2899C9.83225 10.4829 8.86625 10.0399 7.87025 10.1199C6.81325 10.1209 5.77725 10.4069 4.87025 10.9499V18.9999C5.77025 19.5599 6.81025 19.8539 7.87025 19.8499L7.88025 19.8399Z" fill="white"/>
<path d="M19.5391 22.88C19.1811 22.947 18.8361 22.711 18.7691 22.352C18.7541 22.272 18.7541 22.19 18.7691 22.11V7.99995C18.7441 7.78395 18.8091 7.56695 18.9491 7.39995C19.1151 7.27395 19.3211 7.21395 19.5291 7.22995H21.7391C22.1591 7.18795 22.5371 7.48295 22.5991 7.89995L22.9991 9.53995C23.6561 8.77095 24.4411 8.12095 25.3191 7.61995C26.0351 7.24495 26.8311 7.04995 27.6391 7.04995H28.0691C28.2861 7.03095 28.5031 7.09095 28.6791 7.21995C28.8191 7.38695 28.8841 7.60395 28.8591 7.81995V10.4C28.8761 10.608 28.8161 10.814 28.6891 10.98C28.5221 11.12 28.3051 11.185 28.0891 11.16H27.5391C27.3121 11.16 27.0261 11.16 26.6791 11.16C26.1011 11.172 25.5251 11.239 24.9591 11.36C24.3691 11.469 23.7931 11.64 23.2391 11.87V22.12C23.2551 22.328 23.1951 22.534 23.0691 22.7C22.9021 22.84 22.6851 22.905 22.4691 22.88H19.5391Z" fill="white"/>
<path d="M33.29 4.79005C32.608 4.82405 31.939 4.59505 31.42 4.15005C30.938 3.69905 30.679 3.05905 30.71 2.40005C30.676 1.73705 30.935 1.09305 31.42 0.64005C32.516 -0.23695 34.074 -0.23695 35.17 0.64005C35.652 1.09105 35.911 1.73105 35.88 2.39005C35.911 3.04905 35.652 3.68905 35.17 4.14005C34.65 4.59105 33.977 4.82405 33.29 4.79005ZM31.82 22.89C31.462 22.957 31.117 22.721 31.05 22.362C31.035 22.282 31.035 22.2001 31.05 22.1201V8.00005C31.025 7.78405 31.09 7.56705 31.23 7.40005C31.396 7.27405 31.602 7.21405 31.81 7.23005H34.76C34.974 7.20805 35.189 7.26805 35.36 7.40005C35.492 7.57105 35.552 7.78605 35.53 8.00005V22.1201C35.547 22.3281 35.487 22.534 35.36 22.7001C35.193 22.84 34.976 22.905 34.76 22.88L31.82 22.89Z" fill="white"/>
<path d="M40.0996 22.88C39.7416 22.947 39.3966 22.711 39.3296 22.352C39.3146 22.272 39.3146 22.19 39.3296 22.11V7.99999C39.3046 7.78399 39.3696 7.56699 39.5096 7.39999C39.6756 7.27399 39.8816 7.21399 40.0896 7.22999H42.2996C42.7196 7.18799 43.0976 7.48299 43.1596 7.89999L43.4096 8.72999C44.3196 8.10299 45.3036 7.59299 46.3396 7.20999C47.1946 6.91199 48.0936 6.75699 48.9996 6.74999C50.5756 6.61499 52.0896 7.39199 52.8996 8.74999C53.8126 8.12199 54.8046 7.61799 55.8496 7.24999C56.7716 6.94299 57.7376 6.78799 58.7096 6.78999C59.9376 6.71599 61.1416 7.14999 62.0396 7.98999C62.8676 8.89799 63.2936 10.103 63.2196 11.33V22.12C63.2356 22.328 63.1756 22.534 63.0496 22.7C62.8826 22.84 62.6656 22.905 62.4496 22.88H59.5396C59.1816 22.947 58.8366 22.711 58.7696 22.352C58.7546 22.272 58.7546 22.19 58.7696 22.11V12.27C58.7696 10.877 58.1466 10.18 56.8996 10.18C55.7376 10.193 54.5926 10.467 53.5496 10.98V22.12C53.5666 22.328 53.5066 22.534 53.3796 22.7C53.2126 22.84 52.9956 22.905 52.7796 22.88H49.8396C49.4816 22.947 49.1366 22.711 49.0696 22.352C49.0546 22.272 49.0546 22.19 49.0696 22.11V12.27C49.0696 10.877 48.4466 10.18 47.1996 10.18C46.0236 10.187 44.8656 10.472 43.8196 11.01V22.11C43.8356 22.318 43.7756 22.524 43.6496 22.69C43.4826 22.83 43.2656 22.895 43.0496 22.87L40.0996 22.88Z" fill="white"/>
<path d="M73.9198 23.34C71.7648 23.481 69.6478 22.725 68.0698 21.25C66.6268 19.598 65.9058 17.437 66.0698 15.25C65.9258 12.983 66.6558 10.746 68.1098 9C69.6248 7.436 71.7458 6.607 73.9198 6.73C75.5278 6.634 77.1158 7.125 78.3898 8.11C79.4678 9.03 80.0618 10.395 79.9998 11.81C80.0728 13.195 79.4118 14.517 78.2598 15.29C76.7088 16.176 74.9318 16.586 73.1498 16.47C72.1398 16.482 71.1318 16.368 70.1498 16.13C70.1558 17.236 70.6018 18.294 71.3898 19.07C72.3228 19.732 73.4588 20.047 74.5998 19.96C75.1578 19.96 75.7158 19.923 76.2698 19.85C77.0318 19.732 77.7858 19.571 78.5298 19.37H78.7098H78.8598C79.2068 19.37 79.3798 19.607 79.3798 20.08V21.49C79.3988 21.729 79.3508 21.968 79.2398 22.18C79.0978 22.347 78.9098 22.468 78.6998 22.53C77.1698 23.093 75.5498 23.368 73.9198 23.34ZM72.9198 13.71C73.7068 13.767 74.4938 13.601 75.1898 13.23C75.6678 12.903 75.9378 12.348 75.8998 11.77C75.8998 10.483 75.1328 9.84 73.5998 9.84C71.6328 9.84 70.4968 11.047 70.1898 13.46C71.0828 13.631 71.9908 13.715 72.8998 13.71H72.9198Z" fill="white"/>
<path d="M72.3104 40.1101C63.5504 46.5701 50.8504 50.0001 39.9204 50.0001C25.3144 50.0781 11.2044 44.7051 0.350448 34.9301C-0.469552 34.1901 0.260448 33.1801 1.25045 33.7501C13.3084 40.6351 26.9554 44.2511 40.8404 44.2401C51.2014 44.1851 61.4505 42.0881 71.0005 38.0701C72.5204 37.4401 73.7604 39.0001 72.3104 40.1101Z" fill="white"/>
<path d="M75.9995 36C74.8795 34.57 68.5995 35.32 65.7695 35.66C64.9095 35.76 64.7695 35.02 65.5495 34.48C70.5495 30.96 78.7795 31.98 79.7295 33.16C80.6795 34.34 79.4795 42.57 74.7295 46.5C74.0095 47.1 73.3195 46.78 73.6395 45.98C74.7095 43.29 77.0795 37.39 75.9995 36Z" fill="white"/>
</g>
<defs>
<clipPath id="clip0">
<rect width="80" height="50" fill="white"/>
</clipPath>
</defs>
</svg>
