<?xml version="1.0" encoding="utf-8"?>
<!-- Generator: Adobe Illustrator 23.0.3, SVG Export Plug-In . SVG Version: 6.00 Build 0)  -->
<svg version="1.1" id="Layer_1" xmlns="http://www.w3.org/2000/svg" xmlns:xlink="http://www.w3.org/1999/xlink" x="0px" y="0px"
	 viewBox="0 0 1965.1 238" style="enable-background:new 0 0 1965.1 238;" xml:space="preserve">
<style type="text/css">
	.st0{fill:#CE3425;}
</style>
<g>
	<polygon class="st0" points="25.3,0 0,0 0,25.3 	"/>
	<polygon class="st0" points="494.4,238 518.2,238 518.2,213.7 	"/>
	<polygon class="st0" points="323.8,0 140.3,0 140.3,183.1 	"/>
	<polygon class="st0" points="194.6,238 378.2,238 378.2,54.9 	"/>
	<g>
		<polygon class="st0" points="79.2,238 79.2,54.9 0,133.9 0,238 		"/>
	</g>
	<g>
		<polygon class="st0" points="439,0 439,183.1 518.2,104.1 518.2,0 		"/>
	</g>
</g>
<g>
	<path d="M642.3,196.9c-0.9-0.9-1.3-1.9-1.3-3.2l0.4-2.5l58.4-145.5c1.2-3.3,3.6-4.9,7.2-4.9h14.4c3.6,0,6,1.7,7.2,4.9l58.4,145.5
		l0.4,2.5c0,1.2-0.5,2.3-1.5,3.2c-1,0.9-2.1,1.3-3.3,1.3h-15.8c-1.5,0-2.7-0.4-3.7-1.2c-1-0.8-1.6-1.7-1.9-2.6l-15.2-35H682l-15,35
		c-1.2,2.5-3.1,3.8-5.6,3.8h-16C644.2,198.3,643.2,197.8,642.3,196.9z M688.5,138.5h51.3l-25.7-64.4L688.5,138.5z"/>
	<path d="M803.4,196.8c-0.9-1-1.3-2.2-1.3-3.7V46.2c0-1.7,0.4-3,1.3-3.9s2.1-1.5,3.6-1.5h54.9c17.1,0,30.5,4,40.1,12
		c9.7,8,14.5,19.7,14.5,35c0,11.4-2.9,20.8-8.6,28.1c-5.7,7.4-14.7,12.4-24.9,15.3l33.3,60.1c0.4,0.9,0.7,1.7,0.7,2.5
		c0,1.2-0.4,2.3-1.3,3.2c-0.9,0.9-1.9,1.3-3.2,1.3H895c-2.3,0-4-0.5-5.3-1.6c-1.3-1-2.4-2.5-3.5-4.5l-30.5-57.6h-28.6v58.5
		c0,1.5-0.5,2.7-1.6,3.7c-1.1,1-2.3,1.5-3.8,1.5H807C805.5,198.3,804.3,197.8,803.4,196.8z M855.8,115.2c22.6,0,34-8.5,34-27.5
		s-11.3-26-34-26h-28.7v53.5L855.8,115.2L855.8,115.2z"/>
	<path d="M976,196.8c-1-1-1.5-2.2-1.5-3.7V60.2h-43.4c-1.5,0-2.7-0.5-3.7-1.5c-1-1-1.5-2.2-1.5-3.7v-8.8c0-1.7,0.5-3,1.5-3.9
		c1-1,2.2-1.5,3.7-1.5h113.1c1.7,0,2.9,0.5,3.8,1.5c0.9,1,1.3,2.3,1.3,3.9V55c0,1.5-0.5,2.7-1.5,3.7c-1,1-2.2,1.5-3.7,1.5h-43.2
		v132.9c0,1.5-0.5,2.7-1.6,3.7c-1.1,1-2.3,1.5-3.8,1.5h-16C978.3,198.3,977,197.8,976,196.8z"/>
	<path d="M1064.3,196.8c-0.9-1-1.3-2.2-1.3-3.7V46c0-1.5,0.4-2.7,1.3-3.7c0.9-1,2.1-1.5,3.6-1.5h15.1c1.7,0,2.9,0.4,3.8,1.3
		c0.9,0.9,1.3,2.2,1.3,3.8v147.1c0,1.5-0.5,2.7-1.5,3.7c-1,1-2.2,1.5-3.7,1.5H1068C1066.4,198.3,1065.2,197.8,1064.3,196.8z"/>
	<path d="M1278.8,196.8c-1-1-1.5-2.2-1.5-3.7V60.2H1234c-1.5,0-2.7-0.5-3.7-1.5c-1-1-1.5-2.2-1.5-3.7v-8.8c0-1.7,0.5-3,1.5-3.9
		c1-1,2.2-1.5,3.7-1.5h113.1c1.7,0,2.9,0.5,3.8,1.5c0.9,1,1.3,2.3,1.3,3.9V55c0,1.5-0.5,2.7-1.5,3.7c-1,1-2.2,1.5-3.7,1.5h-43.2
		v132.9c0,1.5-0.5,2.7-1.6,3.7c-1.1,1-2.3,1.5-3.8,1.5h-16C1281,198.3,1279.8,197.8,1278.8,196.8z"/>
	<path d="M1423.8,197.1c-0.9-1-1.3-2.2-1.3-3.7V46.5c0-1.7,0.4-3,1.3-3.9c0.9-1,2.1-1.5,3.6-1.5h56.9c16.9,0,30.2,4.1,39.9,12.3
		c9.7,8.2,14.5,20.1,14.5,35.7s-4.8,25.4-14.5,33.5s-23,12.2-39.9,12.2H1449v58.7c0,1.5-0.5,2.7-1.5,3.7c-1,1-2.2,1.5-3.7,1.5h-16.4
		C1425.9,198.5,1424.7,198.1,1423.8,197.1z M1483.2,113.3c11.3,0,28.9-3,29.8-24.3c0.4-9.6-0.7-13.1-5.4-19.1
		c-5.9-5.9-13-8.6-24.4-8.6H1449v51.9H1483.2z"/>
	<path d="M1569.4,185.2c-10.5-10.4-17-26.2-17-47.3V46.5c0-1.7,0.4-3,1.3-3.9c0.9-1,2.1-1.5,3.6-1.5h14.7c1.7,0,3,0.5,3.9,1.5
		c1,1,1.5,2.3,1.5,3.9v91.8c0,14.7,3.4,22.3,10.2,29.5c6.8,7.2,16.5,10.8,29.1,10.8c12.4,0,22.1-3.6,28.9-10.9
		c6.8-7.3,10.2-14.8,10.2-29.4V46.5c0-1.7,0.4-3,1.3-3.9c0.9-1,2.2-1.5,3.8-1.5h14.4c1.5,0,2.7,0.5,3.7,1.5c1,1,1.5,2.3,1.5,3.9
		v91.3c0,21.1-6.2,36.9-16.7,47.3s-27.9,15.6-47.2,15.6C1597.4,200.8,1579.9,195.6,1569.4,185.2z"/>
	<g>
		<path d="M1835.3,196.3c-0.9-1-1.3-2.2-1.3-3.7V45.7c0-1.7,0.4-3,1.3-3.9c0.9-1,2.1-1.5,3.6-1.5h16c1.7,0,3,0.5,3.9,1.5
			c1,1,1.5,2.3,1.5,3.9v62.5h78.3V45.7c0-1.7,0.5-3,1.5-3.9c1-1,2.2-1.5,3.7-1.5h16c1.7,0,3,0.5,3.9,1.5c1,1,1.5,2.3,1.5,3.9v146.9
			c0,1.5-0.5,2.7-1.6,3.7c-1.1,1-2.3,1.5-3.8,1.5h-16c-1.5,0-2.7-0.5-3.7-1.5c-1-1-1.5-2.2-1.5-3.7v-64.8h-78.3v64.8
			c0,1.5-0.5,2.7-1.6,3.7c-1.1,1-2.3,1.5-3.8,1.5h-16C1837.4,197.7,1836.2,197.2,1835.3,196.3z"/>
	</g>
	<path d="M1812.6,135c-3.6-5.3-9-13.1-16.3-16.7s-17.3-8-30-11.6c-11.1-3.3-14.9-4.4-20.7-7c-5.8-2.6-9.5-3.4-12.3-6.7
		c-2.8-3.3-4.7-7.3-4.7-12.6c0-0.5,0-1,0-1.5c0,0,0,0,0,0c0-1.1,0.1-2.1,0.3-3.2c0.6-3.7,2.1-6.5,4.9-8.9c2.5-2.6,5.8-4.7,9.6-6.2
		c1.4-0.6,2.8-1.1,4.6-1.4c2.6-0.6,5.4-0.9,8.2-0.9c11.8,0,21.8,5.5,25.8,13.3c1.7,2.7,2.6,5.7,3.1,9.1c0.5,1.5,1.2,2.6,2.3,3.4
		c1,0.8,2.2,1.1,3.4,1.1h16.7c1.3,0,2.5-0.4,3.4-1.3c0.9-0.9,1.3-2,1.3-3.4c-0.3-6.3-2.4-14.1-6.7-20.3c-4.3-6.2-9.9-12.2-18.2-16.3
		c-8.3-4.1-18.3-6.2-30-6.2c-11.2,0-21,1.8-29.2,5.5c-8.2,3.7-15.3,9.5-19.7,15.9s-6.5,13.6-6.5,21.7c0,8.4,1.7,15.3,5.2,20.8
		s9.4,10.1,16.2,13.8c6.8,3.8,16,7.3,27.5,10.6c12.1,3.6,19.9,6.3,25.8,9.2c3.1,1.5,4.8,2.6,6.1,3.6c4.9,3.7,8,8.6,8.3,13.9
		c0.2,1.2,0.2,2.4,0.2,3.6c0,8-4.2,13.2-10.5,17.7c-6.3,4.5-9.6,5.1-22.4,5.1c-11.9,0-19.3-3.3-25.3-8.4c-7.2-6.1-8.4-13.6-9.8-19.9
		c-1.1-3-2.9-4.5-5.6-4.5h-17c-1.3,0-2.5,0.4-3.4,1.3c-0.9,0.9-1.3,2-1.3,3.2c0.3,7.3,2.6,20,9.6,28.3c5.1,6.1,11.6,11.5,20.7,15.4
		c9.1,3.9,19.7,5.8,32,5.9c18.3,0,32.8-3.9,43.5-11.8c10.7-7.9,16.1-18.9,16.1-33C1818,147.2,1816.2,140.3,1812.6,135z"/>
	<path d="M1221,135.3c-3.6-5.3-9-13.1-16.3-16.7s-17.3-8-30-11.6c-11.1-3.3-14.9-4.4-20.7-7c-5.8-2.6-9.5-3.4-12.3-6.7
		c-2.8-3.3-4.7-7.3-4.7-12.6c0-0.5,0-1,0-1.5c0,0,0,0,0,0c0-1.1,0.1-2.1,0.3-3.2c0.6-3.7,2.1-6.5,4.9-8.9c2.5-2.6,5.8-4.7,9.6-6.2
		c1.4-0.6,2.8-1.1,4.6-1.4c2.6-0.6,5.4-0.9,8.2-0.9c11.8,0,21.8,5.5,25.8,13.3c1.7,2.7,2.6,5.7,3.1,9.1c0.5,1.5,1.2,2.6,2.3,3.4
		c1,0.8,2.2,1.1,3.4,1.1h16.7c1.3,0,2.5-0.4,3.4-1.3c0.9-0.9,1.3-2,1.3-3.4c-0.3-6.3-2.4-14.1-6.7-20.3c-4.3-6.2-9.9-12.2-18.2-16.3
		c-8.3-4.1-18.3-6.2-30-6.2c-11.2,0-21,1.8-29.2,5.5c-8.2,3.7-15.3,9.5-19.7,15.9s-6.5,13.6-6.5,21.7c0,8.4,1.7,15.3,5.2,20.8
		s9.4,10.1,16.2,13.8c6.8,3.8,16,7.3,27.5,10.6c12.1,3.6,19.9,6.3,25.8,9.2c3.1,1.5,4.8,2.6,6.1,3.6c4.9,3.7,8,8.6,8.3,13.9
		c0.2,1.2,0.2,2.4,0.2,3.6c0,8-4.2,13.2-10.5,17.7c-6.3,4.5-9.6,5.1-22.4,5.1c-11.9,0-19.3-3.3-25.3-8.4c-7.2-6.1-8.4-13.6-9.8-19.9
		c-1.1-3-2.9-4.5-5.6-4.5h-17c-1.3,0-2.5,0.4-3.4,1.3c-0.9,0.9-1.3,2-1.3,3.2c0.3,7.3,2.6,20,9.6,28.3c5.1,6.1,11.6,11.5,20.7,15.4
		c9.1,3.9,19.7,5.8,32,5.9c18.3,0,32.8-3.9,43.5-11.8c10.7-7.9,16.1-18.9,16.1-33C1226.4,147.5,1224.6,140.6,1221,135.3z"/>
</g>
</svg>
