<svg width="60" height="60" viewBox="0 0 60 60" fill="none" xmlns="http://www.w3.org/2000/svg">
<path opacity="0.8" fill-rule="evenodd" clip-rule="evenodd" d="M0.276125 10.4971L0.276126 0H5.11044L5.11044 10.4971H11.5483V0H17.4727V8.19876H15.9503L17.4727 9.72115V10.4971H18.2487L18.2487 10.4972H17.4358V21.6328H16.6109V24.3625L11.2541 19.0057V10.4972H5.40605L5.40605 21.643H7.95051L7.95051 32.7786H8.19876V51.8012H30.2321V55.0701H30.9988V51.8012H38.9006V55.0701H44.6209V43.9243H43.8054V36.0538L51.0114 43.2598V43.9243H49.7516V55.0701H56.0519V43.9243H54.7955V32.7788H51.8012V32.7786L54.785 32.7786V21.643V21.6328V10.4972H51.8012V10.4971H55.6497V0H60V60H55.9938V55.0704H49.8214V60H44.6419V55.0704H38.8921V60H33.3472V55.0704H27.8824V60H22.2015V55.0704H16.7367V60H11.0672V55.0704H5.60238V60H0V21.643H0.0778731L0.0778736 10.4972H0V10.4971H0.276125ZM22.3313 30.0828L27.6965 35.4481V32.7788H33.5446V41.2962L38.9006 46.6522V43.9243H39.7166V32.7788H40.5304L32.6605 24.909V32.7786L28.5718 32.7786V21.6328H29.3844L21.5246 13.773V21.6328H22.3313V30.0828ZM21.473 8.19876H28.6599V0H21.473V8.19876ZM39.8063 8.19876H32.5816V0H39.8063L39.8063 8.19876ZM50.1751 8.19876H43.728V0H50.1751V8.19876Z" fill="white"/>
</svg>
