<svg width="68" height="44" viewBox="0 0 68 44" fill="none" xmlns="http://www.w3.org/2000/svg">
<path fill-rule="evenodd" clip-rule="evenodd" d="M58.4397 25.3564C58.4397 11.3751 47.4056 0 33.8432 0C20.2809 0 9.24805 11.3751 9.24805 25.3564C9.24805 31.8272 11.6149 37.9871 15.9141 42.7091L15.9154 42.7078C16.0502 42.8574 16.214 42.9782 16.3968 43.0628C16.5795 43.1475 16.7775 43.1943 16.9789 43.2003C17.1802 43.2064 17.3807 43.1717 17.5682 43.0982C17.7558 43.0248 17.9265 42.9141 18.0702 42.7729L20.7207 40.2017C21.0147 39.9123 21.1859 39.5208 21.199 39.1085C21.2121 38.6961 21.066 38.2946 20.791 37.9871L20.7936 37.9845C17.6655 34.5493 15.9414 30.0628 15.9414 25.3564C15.9414 15.181 23.9724 6.90154 33.8432 6.90154C43.7141 6.90154 51.7451 15.181 51.7451 25.3564C51.7451 30.0628 50.0236 34.5493 46.8929 37.9845L46.8994 37.9897C46.6252 38.2972 46.4798 38.6985 46.4934 39.1103C46.507 39.5221 46.6784 39.9129 46.9723 40.2017L49.6241 42.7729C50.2357 43.3689 51.2012 43.3363 51.7776 42.7065L51.775 42.7052C56.0729 37.9845 58.4397 31.8246 58.4397 25.3564Z" fill="#9C9C9C"/>
<path fill-rule="evenodd" clip-rule="evenodd" d="M67.8808 24.6186C67.8808 21.1652 67.3799 17.7574 66.3858 14.4875H66.3871C66.3871 14.4849 66.3832 14.4823 66.3832 14.4784L66.3806 14.468C66.1229 13.6534 65.2771 13.198 64.4795 13.453L61.0027 14.5669C60.1999 14.8232 59.751 15.7015 59.9982 16.5304L59.9956 16.533C60.7841 19.1393 61.1888 21.8588 61.1888 24.6199C61.1888 29.4942 59.9084 34.2748 57.4869 38.4464L57.4908 38.4503C57.2851 38.8073 57.2252 39.2299 57.3236 39.6299C57.4221 40.03 57.6712 40.3765 58.0191 40.5973L61.1419 42.5283C61.3135 42.6339 61.5046 42.7039 61.7038 42.734C61.903 42.7641 62.1063 42.7537 62.3014 42.7034C62.4965 42.6531 62.6794 42.564 62.8393 42.4413C62.9991 42.3187 63.1326 42.165 63.2317 41.9896C66.2837 36.7095 67.8874 30.7173 67.8808 24.6186Z" fill="#9C9C9C"/>
<path fill-rule="evenodd" clip-rule="evenodd" d="M10.5587 38.4503C8.12869 34.2474 6.85167 29.4773 6.85677 24.6225C6.85677 21.8613 7.26014 19.1431 8.04997 16.5368H8.05127V16.5342C8.29849 15.7054 7.84958 14.8271 7.04935 14.5694L3.56995 13.453C2.77232 13.198 1.92524 13.6534 1.6702 14.4731L1.6637 14.4692C0.665726 17.7612 0.159733 21.1826 0.162118 24.6225C0.162118 30.7433 1.773 36.7496 4.81259 41.9921L4.8178 41.9895C4.91741 42.1638 5.05106 42.3162 5.21078 42.4377C5.3705 42.5592 5.55303 42.6473 5.74751 42.6969C5.94199 42.7464 6.14445 42.7563 6.34284 42.726C6.54123 42.6957 6.73149 42.6258 6.90231 42.5204L10.0252 40.5894C10.7408 40.147 10.9764 39.1933 10.5561 38.4503H10.5574H10.5587Z" fill="#9C9C9C"/>
</svg>
