<svg width="68" height="45" viewBox="0 0 68 45" fill="none" xmlns="http://www.w3.org/2000/svg">
<path d="M68.0002 0H53.2969V8.722H68.0002V0Z" fill="#9C9C9C"/>
<path d="M68.0002 12.0927H53.2969V20.8147H68.0002V12.0927Z" fill="#9C9C9C"/>
<path d="M68.0002 24.1853H53.2969V32.9073H68.0002V24.1853Z" fill="#9C9C9C"/>
<path d="M14.7034 36.278H0V45H14.7034V36.278Z" fill="#9C9C9C"/>
<path d="M32.4573 36.278H17.7539V45H32.4573V36.278Z" fill="#9C9C9C"/>
<path d="M50.2444 36.278H35.541V45H50.2444V36.278Z" fill="#9C9C9C"/>
<path d="M68.0002 36.278H53.2969V45H68.0002V36.278Z" fill="#9C9C9C"/>
<path d="M50.2444 24.1853H35.541V32.9073H50.2444V24.1853Z" fill="#9C9C9C"/>
<path d="M32.4573 24.1853H17.7539V32.9073H32.4573V24.1853Z" fill="#9C9C9C"/>
<path d="M32.4573 12.0927H17.7539V20.8147H32.4573V12.0927Z" fill="#9C9C9C"/>
</svg>
