<svg width="64" height="66" viewBox="0 0 64 66" fill="none" xmlns="http://www.w3.org/2000/svg">
<g opacity="0.8">
<mask id="path-1-outside-1" maskUnits="userSpaceOnUse" x="0" y="0" width="64" height="66" fill="black">
<rect fill="white" width="64" height="66"/>
<path fill-rule="evenodd" clip-rule="evenodd" d="M32.2385 19.4341V1H34.2385V19.4341H32.2385ZM32.2385 32.3114L3.41421 3.48705L2 4.90126L30.8243 33.7256L3.23524 61.3147L4.64945 62.7289L32.2385 35.1398L59.8276 62.7289L61.2418 61.3147L33.6527 33.7256L62.4771 4.90126L61.0628 3.48705L32.2385 32.3114ZM13.1819 41.4805V23.7167H12.2008V31.8731H3.11019V23.7167H2.12904V41.4805H3.11019V33.049H12.2008V41.4805H13.1819ZM57.5875 33.8893H53.1623V24.8926H57.5875C58.7221 24.8926 59.5698 25.2262 60.1304 25.8934C60.7044 26.5439 60.9914 27.4863 60.9914 28.7206C60.9914 29.9549 60.7044 32.2463 60.1304 32.9135C59.5698 33.564 58.7221 33.8893 57.5875 33.8893ZM53.1623 41.4805V35.0652H57.5074C59.0559 35.0652 60.1905 34.6065 60.9114 33.6891C61.6455 32.7717 62.0126 30.2218 62.0126 28.7206C62.0126 27.2195 61.6455 26.0102 60.9114 25.0928C60.1905 24.1754 59.0559 23.7167 57.5074 23.7167H52.1812V41.4805H53.1623ZM39.2887 55.7195C39.2887 59.6128 36.1326 62.769 32.2392 62.769C28.3459 62.769 25.1897 59.6128 25.1897 55.7195C25.1897 51.8262 28.3459 48.67 32.2392 48.67C36.1326 48.67 39.2887 51.8262 39.2887 55.7195ZM41.2887 55.7195C41.2887 60.7174 37.2371 64.769 32.2392 64.769C27.2413 64.769 23.1897 60.7174 23.1897 55.7195C23.1897 50.7216 27.2413 46.67 32.2392 46.67C37.2371 46.67 41.2887 50.7216 41.2887 55.7195Z"/>
</mask>
<path fill-rule="evenodd" clip-rule="evenodd" d="M32.2385 19.4341V1H34.2385V19.4341H32.2385ZM32.2385 32.3114L3.41421 3.48705L2 4.90126L30.8243 33.7256L3.23524 61.3147L4.64945 62.7289L32.2385 35.1398L59.8276 62.7289L61.2418 61.3147L33.6527 33.7256L62.4771 4.90126L61.0628 3.48705L32.2385 32.3114ZM13.1819 41.4805V23.7167H12.2008V31.8731H3.11019V23.7167H2.12904V41.4805H3.11019V33.049H12.2008V41.4805H13.1819ZM57.5875 33.8893H53.1623V24.8926H57.5875C58.7221 24.8926 59.5698 25.2262 60.1304 25.8934C60.7044 26.5439 60.9914 27.4863 60.9914 28.7206C60.9914 29.9549 60.7044 32.2463 60.1304 32.9135C59.5698 33.564 58.7221 33.8893 57.5875 33.8893ZM53.1623 41.4805V35.0652H57.5074C59.0559 35.0652 60.1905 34.6065 60.9114 33.6891C61.6455 32.7717 62.0126 30.2218 62.0126 28.7206C62.0126 27.2195 61.6455 26.0102 60.9114 25.0928C60.1905 24.1754 59.0559 23.7167 57.5074 23.7167H52.1812V41.4805H53.1623ZM39.2887 55.7195C39.2887 59.6128 36.1326 62.769 32.2392 62.769C28.3459 62.769 25.1897 59.6128 25.1897 55.7195C25.1897 51.8262 28.3459 48.67 32.2392 48.67C36.1326 48.67 39.2887 51.8262 39.2887 55.7195ZM41.2887 55.7195C41.2887 60.7174 37.2371 64.769 32.2392 64.769C27.2413 64.769 23.1897 60.7174 23.1897 55.7195C23.1897 50.7216 27.2413 46.67 32.2392 46.67C37.2371 46.67 41.2887 50.7216 41.2887 55.7195Z" fill="white"/>
<path d="M32.2385 1V0H31.2385V1H32.2385ZM32.2385 19.4341H31.2385V20.4341H32.2385V19.4341ZM34.2385 1H35.2385V0H34.2385V1ZM34.2385 19.4341V20.4341H35.2385V19.4341H34.2385ZM3.41421 3.48705L4.12132 2.77994L3.41421 2.07284L2.70711 2.77994L3.41421 3.48705ZM32.2385 32.3114L31.5314 33.0185L32.2385 33.7256L32.9456 33.0185L32.2385 32.3114ZM2 4.90126L1.29289 4.19416L0.585786 4.90126L1.29289 5.60837L2 4.90126ZM30.8243 33.7256L31.5314 34.4327L32.2385 33.7256L31.5314 33.0185L30.8243 33.7256ZM3.23524 61.3147L2.52813 60.6075L1.82102 61.3147L2.52813 62.0218L3.23524 61.3147ZM4.64945 62.7289L3.94234 63.436L4.64945 64.1431L5.35656 63.436L4.64945 62.7289ZM32.2385 35.1398L32.9456 34.4327L32.2385 33.7256L31.5314 34.4327L32.2385 35.1398ZM59.8276 62.7289L59.1205 63.436L59.8276 64.1431L60.5347 63.436L59.8276 62.7289ZM61.2418 61.3147L61.9489 62.0218L62.656 61.3147L61.9489 60.6075L61.2418 61.3147ZM33.6527 33.7256L32.9456 33.0185L32.2385 33.7256L32.9456 34.4327L33.6527 33.7256ZM62.4771 4.90126L63.1842 5.60837L63.8913 4.90126L63.1842 4.19416L62.4771 4.90126ZM61.0628 3.48705L61.77 2.77994L61.0628 2.07284L60.3557 2.77994L61.0628 3.48705ZM13.1819 23.7167H14.1819V22.7167H13.1819V23.7167ZM13.1819 41.4805V42.4805H14.1819V41.4805H13.1819ZM12.2008 23.7167V22.7167H11.2008V23.7167H12.2008ZM12.2008 31.8731V32.8731H13.2008V31.8731H12.2008ZM3.11019 31.8731H2.11019V32.8731H3.11019V31.8731ZM3.11019 23.7167H4.11019V22.7167H3.11019V23.7167ZM2.12904 23.7167V22.7167H1.12904V23.7167H2.12904ZM2.12904 41.4805H1.12904V42.4805H2.12904V41.4805ZM3.11019 41.4805V42.4805H4.11019V41.4805H3.11019ZM3.11019 33.049V32.049H2.11019V33.049H3.11019ZM12.2008 33.049H13.2008V32.049H12.2008V33.049ZM12.2008 41.4805H11.2008V42.4805H12.2008V41.4805ZM53.1623 33.8893H52.1623V34.8893H53.1623V33.8893ZM53.1623 24.8926V23.8926H52.1623V24.8926H53.1623ZM60.1304 25.8934L59.3649 26.5368L59.3726 26.546L59.3806 26.5551L60.1304 25.8934ZM60.1304 32.9135L60.8879 33.5664L60.8885 33.5657L60.1304 32.9135ZM53.1623 35.0652V34.0652H52.1623V35.0652H53.1623ZM53.1623 41.4805V42.4805H54.1623V41.4805H53.1623ZM60.9114 33.6891L60.1306 33.0642L60.1251 33.0713L60.9114 33.6891ZM60.9114 25.0928L60.125 25.7107L60.1306 25.7176L60.9114 25.0928ZM52.1812 23.7167V22.7167H51.1812V23.7167H52.1812ZM52.1812 41.4805H51.1812V42.4805H52.1812V41.4805ZM31.2385 1V19.4341H33.2385V1H31.2385ZM34.2385 0H32.2385V2H34.2385V0ZM35.2385 19.4341V1H33.2385V19.4341H35.2385ZM32.2385 20.4341H34.2385V18.4341H32.2385V20.4341ZM2.70711 4.19416L31.5314 33.0185L32.9456 31.6043L4.12132 2.77994L2.70711 4.19416ZM2.70711 5.60837L4.12132 4.19416L2.70711 2.77994L1.29289 4.19416L2.70711 5.60837ZM31.5314 33.0185L2.70711 4.19416L1.29289 5.60837L30.1172 34.4327L31.5314 33.0185ZM3.94234 62.0218L31.5314 34.4327L30.1172 33.0185L2.52813 60.6075L3.94234 62.0218ZM5.35656 62.0218L3.94234 60.6075L2.52813 62.0218L3.94234 63.436L5.35656 62.0218ZM31.5314 34.4327L3.94234 62.0218L5.35656 63.436L32.9456 35.8469L31.5314 34.4327ZM60.5347 62.0218L32.9456 34.4327L31.5314 35.8469L59.1205 63.436L60.5347 62.0218ZM60.5347 60.6075L59.1205 62.0218L60.5347 63.436L61.9489 62.0218L60.5347 60.6075ZM32.9456 34.4327L60.5347 62.0218L61.9489 60.6075L34.3598 33.0185L32.9456 34.4327ZM61.77 4.19416L32.9456 33.0185L34.3598 34.4327L63.1842 5.60837L61.77 4.19416ZM60.3557 4.19416L61.77 5.60837L63.1842 4.19416L61.77 2.77994L60.3557 4.19416ZM32.9456 33.0185L61.77 4.19416L60.3557 2.77994L31.5314 31.6043L32.9456 33.0185ZM12.1819 23.7167V41.4805H14.1819V23.7167H12.1819ZM12.2008 24.7167H13.1819V22.7167H12.2008V24.7167ZM13.2008 31.8731V23.7167H11.2008V31.8731H13.2008ZM3.11019 32.8731H12.2008V30.8731H3.11019V32.8731ZM2.11019 23.7167V31.8731H4.11019V23.7167H2.11019ZM2.12904 24.7167H3.11019V22.7167H2.12904V24.7167ZM3.12904 41.4805V23.7167H1.12904V41.4805H3.12904ZM3.11019 40.4805H2.12904V42.4805H3.11019V40.4805ZM2.11019 33.049V41.4805H4.11019V33.049H2.11019ZM12.2008 32.049H3.11019V34.049H12.2008V32.049ZM13.2008 41.4805V33.049H11.2008V41.4805H13.2008ZM13.1819 40.4805H12.2008V42.4805H13.1819V40.4805ZM53.1623 34.8893H57.5875V32.8893H53.1623V34.8893ZM52.1623 24.8926V33.8893H54.1623V24.8926H52.1623ZM57.5875 23.8926H53.1623V25.8926H57.5875V23.8926ZM60.896 25.2501C60.0914 24.2926 58.9219 23.8926 57.5875 23.8926V25.8926C58.5224 25.8926 59.0482 26.1599 59.3649 26.5368L60.896 25.2501ZM61.9914 28.7206C61.9914 27.3447 61.6722 26.1292 60.8803 25.2318L59.3806 26.5551C59.7367 26.9586 59.9914 27.628 59.9914 28.7206H61.9914ZM60.8885 33.5657C61.1633 33.2463 61.3382 32.8251 61.4573 32.4623C61.5845 32.0748 61.6841 31.6378 61.7609 31.2041C61.9141 30.3388 61.9914 29.399 61.9914 28.7206H59.9914C59.9914 29.2765 59.9253 30.0996 59.7915 30.8554C59.7248 31.2322 59.6451 31.5703 59.557 31.8386C59.5132 31.9722 59.471 32.0769 59.4332 32.1546C59.3936 32.2359 59.3701 32.264 59.3724 32.2613L60.8885 33.5657ZM57.5875 34.8893C58.9138 34.8893 60.0809 34.5027 60.8879 33.5664L59.373 32.2606C59.0587 32.6253 58.5304 32.8893 57.5875 32.8893V34.8893ZM52.1623 35.0652V41.4805H54.1623V35.0652H52.1623ZM57.5074 34.0652H53.1623V36.0652H57.5074V34.0652ZM60.1251 33.0713C59.6519 33.6735 58.8572 34.0652 57.5074 34.0652V36.0652C59.2545 36.0652 60.7292 35.5395 61.6977 34.3069L60.1251 33.0713ZM61.0126 28.7206C61.0126 29.4042 60.9276 30.3527 60.7559 31.2321C60.6703 31.6701 60.5668 32.0723 60.4498 32.4052C60.328 32.7515 60.2124 32.962 60.1306 33.0643L61.6921 34.3139C61.9774 33.9575 62.183 33.5053 62.3366 33.0686C62.4948 32.6184 62.6208 32.1172 62.7188 31.6155C62.9141 30.6152 63.0126 29.5382 63.0126 28.7206H61.0126ZM60.1306 25.7176C60.6874 26.4134 61.0126 27.3825 61.0126 28.7206H63.0126C63.0126 27.0564 62.6036 25.6069 61.6921 24.468L60.1306 25.7176ZM57.5074 24.7167C58.8572 24.7167 59.6519 25.1084 60.1251 25.7106L61.6977 24.475C60.7292 23.2424 59.2545 22.7167 57.5074 22.7167V24.7167ZM52.1812 24.7167H57.5074V22.7167H52.1812V24.7167ZM53.1812 41.4805V23.7167H51.1812V41.4805H53.1812ZM53.1623 40.4805H52.1812V42.4805H53.1623V40.4805ZM32.2392 63.769C36.6848 63.769 40.2887 60.1651 40.2887 55.7195H38.2887C38.2887 59.0606 35.5803 61.769 32.2392 61.769V63.769ZM24.1897 55.7195C24.1897 60.1651 27.7936 63.769 32.2392 63.769V61.769C28.8982 61.769 26.1897 59.0606 26.1897 55.7195H24.1897ZM32.2392 47.67C27.7936 47.67 24.1897 51.2739 24.1897 55.7195H26.1897C26.1897 52.3785 28.8982 49.67 32.2392 49.67V47.67ZM40.2887 55.7195C40.2887 51.2739 36.6848 47.67 32.2392 47.67V49.67C35.5803 49.67 38.2887 52.3785 38.2887 55.7195H40.2887ZM32.2392 65.769C37.7894 65.769 42.2887 61.2697 42.2887 55.7195H40.2887C40.2887 60.1651 36.6848 63.769 32.2392 63.769V65.769ZM22.1897 55.7195C22.1897 61.2697 26.689 65.769 32.2392 65.769V63.769C27.7936 63.769 24.1897 60.1651 24.1897 55.7195H22.1897ZM32.2392 45.67C26.689 45.67 22.1897 50.1693 22.1897 55.7195H24.1897C24.1897 51.2739 27.7936 47.67 32.2392 47.67V45.67ZM42.2887 55.7195C42.2887 50.1693 37.7894 45.67 32.2392 45.67V47.67C36.6848 47.67 40.2887 51.2739 40.2887 55.7195H42.2887Z" fill="white" mask="url(#path-1-outside-1)"/>
</g>
</svg>
