<svg width="47" height="47" viewBox="0 0 47 47" fill="none" xmlns="http://www.w3.org/2000/svg">
<path opacity="0.6" d="M15.6686 23.5C15.6686 19.174 19.1747 15.666 23.5009 15.666C27.8272 15.666 31.3352 19.174 31.3352 23.5C31.3352 27.826 27.8272 31.334 23.5009 31.334C19.1747 31.334 15.6686 27.826 15.6686 23.5ZM11.4335 23.5C11.4335 30.1647 16.836 35.567 23.5009 35.567C30.1659 35.567 35.5684 30.1647 35.5684 23.5C35.5684 16.8353 30.1659 11.433 23.5009 11.433C16.836 11.433 11.4335 16.8353 11.4335 23.5ZM33.2259 10.9546C33.2259 12.5112 34.4883 13.7754 36.0468 13.7754C37.6034 13.7754 38.8677 12.5112 38.8677 10.9546C38.8677 9.3981 37.6053 8.13578 36.0468 8.13578C34.4883 8.13578 33.2259 9.3981 33.2259 10.9546ZM14.0057 42.6284C11.7144 42.524 10.4691 42.1424 9.64146 41.8198C8.54425 41.3927 7.76215 40.8839 6.93829 40.062C6.11632 39.2401 5.60568 38.458 5.18046 37.3608C4.85775 36.5332 4.47619 35.288 4.37178 32.9968C4.25789 30.5196 4.23511 29.7755 4.23511 23.5C4.23511 17.2245 4.25978 16.4823 4.37178 14.0032C4.47619 11.712 4.85965 10.4687 5.18046 9.63918C5.60758 8.542 6.11632 7.75994 6.93829 6.93611C7.76025 6.11418 8.54235 5.60355 9.64146 5.17835C10.4691 4.85565 11.7144 4.47411 14.0057 4.36971C16.4829 4.25582 17.2271 4.23304 23.5009 4.23304C29.7767 4.23304 30.519 4.25771 32.9981 4.36971C35.2894 4.47411 36.5328 4.85755 37.3623 5.17835C38.4596 5.60355 39.2417 6.11418 40.0655 6.93611C40.8875 7.75804 41.3962 8.542 41.8233 9.63918C42.146 10.4668 42.5276 11.712 42.632 14.0032C42.7459 16.4823 42.7687 17.2245 42.7687 23.5C42.7687 29.7736 42.7459 30.5177 42.632 32.9968C42.5276 35.288 42.1441 36.5332 41.8233 37.3608C41.3962 38.458 40.8875 39.2401 40.0655 40.062C39.2436 40.8839 38.4596 41.3927 37.3623 41.8198C36.5347 42.1424 35.2894 42.524 32.9981 42.6284C30.5209 42.7423 29.7767 42.7651 23.5009 42.7651C17.2271 42.7651 16.4829 42.7423 14.0057 42.6284ZM13.812 0.142367C11.3101 0.25626 9.6016 0.652989 8.10764 1.23384C6.56242 1.83368 5.2526 2.63853 3.94467 3.94451C2.63864 5.25048 1.83376 6.56026 1.23389 8.10731C0.653015 9.60121 0.25627 11.3096 0.142372 13.8115C0.0265762 16.3171 0 17.1182 0 23.5C0 29.8818 0.0265762 30.6829 0.142372 33.1885C0.25627 35.6904 0.653015 37.3988 1.23389 38.8927C1.83376 40.4378 2.63674 41.7495 3.94467 43.0555C5.2507 44.3615 6.56052 45.1644 8.10764 45.7662C9.6035 46.347 11.3101 46.7437 13.812 46.8576C16.3197 46.9715 17.1189 47 23.5009 47C29.8849 47 30.6841 46.9734 33.1899 46.8576C35.6918 46.7437 37.4003 46.347 38.8943 45.7662C40.4395 45.1644 41.7493 44.3615 43.0572 43.0555C44.3633 41.7495 45.1662 40.4378 45.768 38.8927C46.3489 37.3988 46.7475 35.6904 46.8595 33.1885C46.9734 30.681 47 29.8818 47 23.5C47 17.1182 46.9734 16.3171 46.8595 13.8115C46.7456 11.3096 46.3489 9.60121 45.768 8.10731C45.1662 6.56216 44.3633 5.25238 43.0572 3.94451C41.7512 2.63853 40.4395 1.83368 38.8962 1.23384C37.4003 0.652989 35.6918 0.254362 33.1918 0.142367C30.686 0.0284733 29.8849 0 23.5028 0C17.1189 0 16.3197 0.0265751 13.812 0.142367Z" fill="white"/>
</svg>
