<svg width="73" height="42" viewBox="0 0 73 42" fill="none" xmlns="http://www.w3.org/2000/svg">
<path fill-rule="evenodd" clip-rule="evenodd" d="M18.8632 3.29711C22.1927 0.83536 26.3326 -0.313856 30.4747 0.0737883C32.021 0.218497 33.5261 0.573497 34.9511 1.11953C35.0064 1.13442 35.0614 1.15255 35.1159 1.174C37.1573 1.97753 39.0181 3.17005 40.5922 4.68342C42.1662 6.19679 43.4225 8.00135 44.2894 9.99398C44.9955 11.6171 45.432 13.339 45.5845 15.0937C47.8604 15.4092 49.9866 16.4459 51.6305 18.0678C53.6269 20.0376 54.7485 22.7091 54.7485 25.4947C54.7485 28.2804 53.6269 30.9519 51.6305 32.9216C49.6341 34.8914 46.9263 35.998 44.103 35.998H12.1663C8.93962 35.998 5.84507 34.7333 3.56344 32.4822C1.28181 30.231 0 27.1778 0 23.9943C0 20.8107 1.28181 17.7575 3.56344 15.5064C5.84507 13.2552 8.93962 11.9906 12.1663 11.9906H12.1915L12.1915 11.9908C12.3936 11.9941 12.5955 12.0023 12.7971 12.0155C13.7915 8.54425 15.9164 5.47584 18.8632 3.29711ZM42.6021 16.7355C42.5737 18.3733 42.2434 19.9936 41.6263 21.5167C41.3145 22.2862 41.694 23.1593 42.4739 23.4669C43.2538 23.7745 44.1388 23.4001 44.4505 22.6306C45.0353 21.1874 45.4093 19.6728 45.5641 18.1322C47.0369 18.4167 48.4031 19.1275 49.4798 20.1898C50.9058 21.5967 51.7069 23.505 51.7069 25.4947C51.7069 27.4845 50.9058 29.3927 49.4798 30.7997C48.0537 32.2066 46.1196 32.997 44.103 32.997H12.1663C9.7463 32.997 7.42538 32.0485 5.71416 30.3602C4.00294 28.6718 3.04158 26.382 3.04158 23.9943C3.04158 21.6838 3.94178 19.4649 5.55053 17.794C5.61294 17.7489 5.67265 17.6985 5.72904 17.6429C6.57636 16.8068 7.58231 16.1436 8.68944 15.6911C9.79656 15.2386 10.9832 15.0057 12.1815 15.0057C12.4023 15.0057 12.6226 15.0136 12.8421 15.0294C13.1227 15.0553 13.4021 15.0941 13.6794 15.1456C13.7613 15.1608 13.8428 15.1693 13.9235 15.1713C14.5216 15.2861 15.108 15.4599 15.6736 15.6911C16.7808 16.1436 17.7867 16.8068 18.634 17.6429C19.2279 18.2289 20.1908 18.229 20.7848 17.643C21.3787 17.0571 21.3788 16.107 20.7849 15.521C19.6551 14.4063 18.3138 13.522 16.8377 12.9186C16.4996 12.7805 16.156 12.6577 15.808 12.5504C16.6536 9.82601 18.3561 7.42206 20.6871 5.69857C23.4113 3.68441 26.7985 2.74414 30.1875 3.06131C33.5765 3.37847 36.7241 4.9303 39.0159 7.41388C41.3077 9.89747 42.5792 13.1345 42.5822 16.4933C42.5822 16.5757 42.5891 16.6567 42.6021 16.7355ZM58.839 14.7697C59.551 14.3303 60.4894 14.5435 60.9348 15.2461C62.8829 18.3189 63.9159 21.8703 63.9159 25.4947C63.9159 29.1192 62.8829 32.6705 60.9348 35.7434C60.4894 36.4459 59.551 36.6592 58.839 36.2198C58.1269 35.7803 57.9107 34.8545 58.3561 34.152C60.0017 31.5563 60.8743 28.5564 60.8743 25.4947C60.8743 22.4331 60.0017 19.4332 58.3561 16.8375C57.9107 16.1349 58.1269 15.2092 58.839 14.7697ZM68.1843 9.66385C67.7218 8.97212 66.7785 8.78129 66.0774 9.23761C65.3763 9.69394 65.1829 10.6246 65.6454 11.3163C68.4587 15.524 69.9584 20.4539 69.9584 25.4947C69.9584 30.5355 68.4587 35.4654 65.6454 39.6731C65.1829 40.3648 65.3763 41.2955 66.0774 41.7519C66.7785 42.2082 67.7218 42.0173 68.1843 41.3256C71.3255 36.6275 73 31.123 73 25.4947C73 19.8664 71.3255 14.3619 68.1843 9.66385Z" fill="#9C9C9C"/>
</svg>
