<svg width="54" height="54" viewBox="0 0 54 54" fill="none" xmlns="http://www.w3.org/2000/svg">
<g opacity="0.6">
<path d="M13.5 27C20.9558 27 27 20.9558 27 13.5C27 6.04416 20.9558 0 13.5 0C6.04416 0 0 6.04416 0 13.5C0 20.9558 6.04416 27 13.5 27Z" fill="#CFCFCF"/>
<path d="M40.5 27C47.9558 27 54 20.9558 54 13.5C54 6.04416 47.9558 0 40.5 0C33.0442 0 27 6.04416 27 13.5C27 20.9558 33.0442 27 40.5 27Z" fill="#CFCFCF"/>
<path d="M13.5 54.0007C20.9558 54.0007 27 47.9566 27 40.5007C27 33.0449 20.9558 27.0007 13.5 27.0007C6.04416 27.0007 0 33.0449 0 40.5007C0 47.9566 6.04416 54.0007 13.5 54.0007Z" fill="#CFCFCF"/>
<path d="M40.5 54.0007C47.9558 54.0007 54 47.9566 54 40.5007C54 33.0449 47.9558 27.0007 40.5 27.0007C33.0442 27.0007 27 33.0449 27 40.5007C27 47.9566 33.0442 54.0007 40.5 54.0007Z" fill="#CFCFCF"/>
</g>
</svg>
