<svg width="62" height="59" viewBox="0 0 62 59" fill="none" xmlns="http://www.w3.org/2000/svg">
<path d="M37.3067 42.8713C35.5163 44.5984 33.3668 45.9061 31.0127 46.7003C28.6586 45.9062 26.5091 44.5986 24.7188 42.8713H37.3067Z" fill="#9C9C9C"/>
<path d="M19.1857 17.8228C16.6594 15.6789 13.6936 14.1196 10.4988 13.2559V33.545C10.5038 39.0054 12.6702 44.2402 16.5216 48.0978C20.373 51.9554 25.5938 54.1198 31.0355 54.1148C36.4772 54.1099 41.6941 51.936 45.5385 48.0713C49.3829 44.2067 51.5399 38.968 51.5349 33.5075V13.2719C48.3347 14.1226 45.3623 15.6751 42.8321 17.8175C39.3761 15.3772 35.2534 14.0676 31.0275 14.0676C26.8017 14.0676 22.679 15.3772 19.223 17.8175L19.1857 17.8228ZM19.239 11.8976C22.8699 10.0144 26.8976 9.03166 30.9849 9.03166C35.0722 9.03166 39.0999 10.0144 42.7308 11.8976C43.5607 11.369 44.4182 10.8852 45.2996 10.4484C41.4116 6.82071 36.2993 4.80423 30.9902 4.80423C25.6812 4.80423 20.5689 6.82071 16.6809 10.4484C17.5016 10.8708 18.4609 11.4109 19.2443 11.8976H19.239ZM11.7779 8.61411C14.1996 5.90359 17.1633 3.73557 20.476 2.25134C23.7886 0.767112 27.3757 0 31.0036 0C34.6314 0 38.2185 0.767112 41.5312 2.25134C44.8438 3.73557 47.8075 5.90359 50.2292 8.61411C52.2733 8.05936 54.3748 7.7453 56.4912 7.67826V16.3575C58.1758 17.4049 59.5659 18.8666 60.53 20.604C61.494 22.3414 62 24.297 62 26.2855C62 28.2741 61.494 30.2297 60.53 31.9671C59.5659 33.7045 58.1758 35.1661 56.4912 36.2135L56.4539 36.4327C55.0789 49.1923 44.1218 58.9999 30.9103 58.9999C24.6247 59.0141 18.5551 56.6999 13.865 52.5009C9.17487 48.3018 6.19426 42.5135 5.49457 36.2456C3.81531 35.1851 2.43083 33.7154 1.4701 31.9734C0.509365 30.2314 0.00363076 28.2738 1.57007e-06 26.2828C-0.00102509 24.3001 0.501455 22.3498 1.46002 20.6161C2.41858 18.8823 3.80161 17.4222 5.47858 16.3736V7.67292C7.6168 7.73576 9.74014 8.05168 11.8045 8.61411H11.7779Z" fill="#9C9C9C"/>
<path d="M37.3736 33.5664C40.7897 33.176 46.5294 33.2242 46.5294 33.2242C46.4335 34.2509 46.5294 37.2777 43.2519 39.1761C42.2512 39.6605 41.1639 39.9387 40.0542 39.9943C36.8939 40.1387 32.3906 40.1762 32.3906 40.1762C33.2007 36.5718 34.517 33.8926 37.3736 33.5664Z" fill="#9C9C9C"/>
<path d="M24.6216 33.5664C27.4781 33.8926 28.7945 36.5718 29.5939 40.1708C29.5939 40.1708 25.0906 40.128 21.9303 39.989C20.8206 39.9332 19.7334 39.655 18.7326 39.1708C15.4391 37.2777 15.535 34.2456 15.4551 33.2188C15.4551 33.2188 21.2001 33.1493 24.6216 33.5664Z" fill="#9C9C9C"/>
<path d="M37.0186 49.8234C35.1981 50.9063 33.1208 51.4777 31.0044 51.4777C28.8881 51.4777 26.8107 50.9063 24.9902 49.8234C25.0696 49.3963 25.2288 48.988 25.4592 48.6202C25.6584 48.2871 25.9321 48.0052 26.2586 47.7966C29.3604 48.6863 32.6485 48.6863 35.7502 47.7966C36.106 48.027 36.4005 48.3408 36.6082 48.7111C36.8245 49.0472 36.9646 49.427 37.0186 49.8234Z" fill="#9C9C9C"/>
</svg>
