<svg width="69" height="63" viewBox="0 0 69 63" fill="none" xmlns="http://www.w3.org/2000/svg">
<path opacity="0.6" d="M20.4149 0.626221L0.861328 28.67L15.3077 59.6699L49.3077 62.6262L68.8613 34.5825L65.9816 28.4033L45.4206 55.8187L37.3866 55.123L37.3641 55.3848L34.2976 56.9304L31.5425 54.8776L31.5648 54.6188L29.4708 54.4374L29.7318 51.4072L31.8274 51.5888L31.854 51.2794L34.9205 49.7339L37.6755 51.7865L37.6491 52.0928L44.0051 52.6433L64.5272 25.2827L54.4149 3.58249L20.4149 0.626221ZM30.1432 21.5031L41.2464 22.4676L45.9644 32.5922L39.5794 41.7494L28.4762 40.7849L23.7582 30.6603L30.1432 21.5031Z" fill="#CFCFCF"/>
</svg>
