<svg width="74" height="74" viewBox="0 0 74 74" fill="none" xmlns="http://www.w3.org/2000/svg">
<path d="M36.583 0C16.381 0 0 16.3801 0 36.583C0 56.7859 16.381 73.166 36.583 73.166C56.785 73.166 73.166 56.7859 73.166 36.583C73.166 16.3801 56.7859 0 36.583 0ZM36.5839 65.9657C19.7737 65.9657 6.14688 52.7904 6.14688 36.5358C6.14688 20.2839 19.7737 7.1077 36.5839 7.1077V1.94567L46.2285 7.32942L55.8723 12.7141L46.2285 18.0969L36.5839 23.4807V18.5155C26.2892 18.5155 17.9456 26.5849 17.9456 36.5376C17.9456 46.4903 26.2901 54.5588 36.5839 54.5588C46.8777 54.5588 55.2222 46.4903 55.2222 36.5376C55.2213 33.5964 54.4929 30.819 53.2 28.3676L63.719 23.1913C65.8312 27.1975 67.0209 31.7326 67.0209 36.5367C67.02 52.7895 53.3932 65.9657 36.5839 65.9657ZM48.5304 36.583C48.5304 43.1805 43.1814 48.5304 36.583 48.5304C29.9846 48.5304 24.6356 43.1814 24.6356 36.583C24.6356 29.9846 29.9846 24.6356 36.583 24.6356C43.1814 24.6356 48.5304 29.9846 48.5304 36.583Z" fill="white"/>
</svg>
