<svg width="73" height="35" viewBox="0 0 73 35" fill="none" xmlns="http://www.w3.org/2000/svg">
<path opacity="0.6" fill-rule="evenodd" clip-rule="evenodd" d="M72.028 28.016C72.2794 27.7784 72.4798 27.4919 72.6169 27.174C72.754 26.8561 72.825 26.5134 72.8253 26.1671C72.8253 25.4647 72.4921 24.8341 72.0358 24.3721L51.4734 3.76416L45.2673 9.98417L61.456 26.2093H38.5202C37.3989 26.1757 36.5104 25.7988 35.759 25.0683L25.4673 14.7534C24.3561 13.6976 22.8846 13.1069 21.3535 13.102H8.7772V8.79792H21.7857C23.0072 8.79817 24.2164 9.04187 25.3431 9.51482C26.4697 9.98777 27.4913 10.6805 28.3484 11.5528L36.0245 19.2463L42.2305 13.0263L34.4049 5.18297C31.0426 1.84477 26.4958 -0.0193268 21.7631 0.000151121H0V21.899H18.4063C18.9759 21.902 19.5393 22.0177 20.0642 22.2395C20.589 22.4612 21.0651 22.7847 21.4649 23.1913L31.5448 33.2971C32.6015 34.3394 34.0095 34.947 35.4911 35H63.3333C64.4613 34.9865 65.5392 34.5314 66.3367 33.7318L72.0358 28.023L72.028 28.016ZM56.2647 0.00156062C55.5892 0.00547766 54.9427 0.277121 54.4663 0.757171C53.99 1.23722 53.7225 1.88667 53.7223 2.56371V2.57776C53.7242 3.25345 53.9938 3.90073 54.4718 4.3772C54.9498 4.85367 55.5971 5.1203 56.2713 5.11844C56.9455 5.11658 57.5913 4.84637 58.0667 4.36727C58.5421 3.88816 58.8081 3.2394 58.8063 2.56371V2.54888C58.8074 2.21404 58.7424 1.88229 58.6151 1.57272C58.4878 1.26316 58.3006 0.981891 58.0644 0.745125C57.8281 0.508358 57.5475 0.320767 57.2386 0.193154C56.9298 0.0655406 56.5988 0.000426444 56.2647 0.00156062ZM58.5135 2.56371C58.5199 2.86321 58.4667 3.16098 58.357 3.43964C58.2473 3.7183 58.0833 3.97225 57.8745 4.18666C57.6658 4.40107 57.4165 4.57165 57.1413 4.68841C56.866 4.80518 56.5703 4.8658 56.2714 4.86673C55.9725 4.86767 55.6764 4.80889 55.4005 4.69385C55.1245 4.5788 54.8742 4.40979 54.6641 4.19669C54.454 3.98358 54.2885 3.73066 54.177 3.45269C54.0656 3.17472 54.0105 2.87729 54.0151 2.57776V2.56371C54.0086 2.26422 54.0618 1.96644 54.1714 1.68777C54.2811 1.4091 54.4451 1.15513 54.6538 0.940688C54.8625 0.726247 55.1117 0.555639 55.3869 0.438829C55.6622 0.322018 55.9579 0.261348 56.2567 0.260362C56.5556 0.259377 56.8517 0.318097 57.1277 0.43309C57.4037 0.548083 57.654 0.717046 57.8641 0.930106C58.0742 1.14317 58.2399 1.39605 58.3514 1.67399C58.4629 1.95193 58.518 2.24935 58.5135 2.54888V2.56371ZM56.5551 1.24329H55.3209V3.83588H55.7741V2.76747H56.4399C56.8565 2.76747 56.9546 2.97819 56.9546 3.45347C56.9424 3.58431 56.9661 3.71601 57.0231 3.83432H57.509C57.4117 3.72896 57.3681 3.45347 57.3681 3.15222C57.3681 2.74406 57.1399 2.62777 56.9842 2.60592V2.59889C57.0683 2.57002 57.4117 2.44281 57.4117 1.94567C57.4117 1.50473 57.1205 1.24329 56.5551 1.24329ZM56.5162 2.42252H55.7741V1.61321H56.5092C56.7444 1.61321 56.9585 1.67877 56.9585 2.00889C56.9585 2.28048 56.802 2.42252 56.5162 2.42252Z" fill="white"/>
</svg>
