<svg width="471" height="470" viewBox="0 0 471 470" fill="none" xmlns="http://www.w3.org/2000/svg">
<path d="M208.996 24.2611L205.227 -5.16223e-05L202.306 0.453703C202.871 3.6389 206.018 21.6267 206.018 21.6267L197.805 1.15302L193.646 1.79895L197.415 26.0601L200.405 25.5956C199.237 18.9847 196.726 4.62881 196.726 4.62881L204.735 24.923L208.996 24.2611Z" fill="#F0502C"/>
<path d="M220.901 17.5598L218.292 17.7946L218.324 18.1423C218.533 20.4723 217.872 21.3031 216.481 21.4283C214.255 21.6286 214.013 19.7222 213.801 17.3574L213.625 15.4099L220.65 14.7777L220.275 10.6045C220.124 8.93527 219.622 5.29941 214.857 5.7282C210.406 6.12882 210.258 9.15715 210.624 13.226L210.884 16.1124C211.275 20.4595 211.446 20.7947 212.023 21.7594C213.087 23.4516 214.667 23.8703 216.58 23.6982C220.962 23.3038 221.117 19.9594 220.963 18.2553L220.901 17.5598ZM217.842 12.7868L213.46 13.1811L213.357 12.0335C213.128 9.49483 213.275 8.00918 215.187 7.83704C217.239 7.65237 217.535 9.37867 217.701 11.2218L217.842 12.7868Z" fill="#F0502C"/>
<path d="M239.967 5.12823L237.045 5.18666L235.287 19.9033L232.733 5.2729L228.977 5.34802L227.015 20.2775L224.874 5.43009L221.848 5.4906L225.395 22.8148L228.803 22.7466L230.91 8.05779L233.568 22.6513L236.906 22.5846L239.967 5.12823Z" fill="#F0502C"/>
<path d="M243.787 16.7622L241.112 16.6403C241.036 19.0737 241.05 20.2927 241.765 21.4045C242.285 22.2289 243.29 23.0754 245.479 23.1752C248.536 23.3146 250.556 21.7704 250.703 18.5396C250.787 16.6984 250.009 15.4444 248.471 14.0515L246.565 12.3284C245.697 11.523 244.486 10.5974 244.547 9.24256C244.623 7.57503 245.85 7.38728 246.476 7.41578C247.865 7.47913 248.273 8.47244 248.197 10.14L248.171 10.6958L250.638 10.8083L250.682 9.83553C250.831 6.56994 249.252 5.31434 246.577 5.1924C243.381 5.04671 242.043 6.90042 241.928 9.43646C241.834 11.4861 242.729 12.4669 244.13 13.8188L246.198 15.7929C247.199 16.7437 247.935 17.4039 247.866 18.9324C247.812 20.1136 247.006 20.982 245.756 20.925C244.331 20.8601 243.643 19.9236 243.724 18.1518L243.787 16.7622Z" fill="#F0502C"/>
<path d="M278.14 17.8201L278.589 15.1451L267.581 13.2949L267.131 15.97L278.14 17.8201Z" fill="#F0502C"/>
<path d="M304.147 33.652L306.059 8.50869L303.121 7.6212L290.927 29.6583L293.965 30.576L296.138 26.2777L301.613 27.9316L301.076 32.7242L304.147 33.652ZM301.879 25.2431L297.405 23.8917L303.236 12.4283L301.879 25.2431Z" fill="#F0502C"/>
<path d="M310.88 17.8122L304.958 34.1611L307.64 35.1322L310.944 26.0095C311.832 23.5572 312.967 21.3423 316.564 22.645L316.923 22.7752L317.918 20.0286L317.493 19.8747C315.499 19.1523 313.622 20.248 312.284 21.7977L313.397 18.7241L310.88 17.8122Z" fill="#F0502C"/>
<path d="M319.165 20.8578L318.372 22.7882L320.303 23.5803L316.025 34.0044C314.969 36.5783 314.729 38.1713 317.946 39.4914C318.236 39.6103 318.719 39.8083 319.487 39.8603L320.345 37.7691C319.842 37.7129 319.616 37.6205 319.391 37.5281C318.072 36.9868 318.281 36.02 318.677 35.0548L322.941 24.6629L325.322 25.6398L326.114 23.7094L323.733 22.7325L325.502 18.4213L322.928 17.3651L321.159 21.6763L319.165 20.8578Z" fill="#F0502C"/>
<path d="M331.838 22.9274L333.303 19.6587L330.796 18.5352L329.331 21.8039L331.838 22.9274ZM323.475 41.5877L330.586 25.7201L328.079 24.5966L320.968 40.4641L323.475 41.5877Z" fill="#F0502C"/>
<path d="M337.53 41.2329L335.166 40.0519C333.767 42.852 332.834 44.0188 331.123 43.1642C329.163 42.1852 330.002 40.5052 331.012 38.4829L333.079 34.3451C334.819 30.8606 335.628 30.0981 337.277 30.9217C339.143 31.854 338.537 33.3007 337.636 35.1052L337.232 35.9141L339.597 37.095L340.032 36.2239C341.508 33.2683 341.958 30.8885 338.225 29.0239C334.305 27.066 332.439 29.3219 330.264 33.6776L329.347 35.5131C328.057 38.0954 327.234 39.8999 327.203 41.2063C327.157 42.3105 327.624 43.8656 329.958 45.031C333.38 46.7403 335.308 45.6818 337.328 41.6373L337.53 41.2329Z" fill="#F0502C"/>
<path d="M339.237 49.5946L351.121 28.1105L348.656 26.7469L336.772 48.2311L339.237 49.5946Z" fill="#F0502C"/>
<path d="M352.582 51.2607L350.354 49.9045L350.173 50.2016C348.962 52.1919 347.94 52.4657 346.752 51.7424C344.851 50.5851 345.786 48.9151 347.016 46.8951L348.028 45.2316L354.029 48.8843L356.199 45.3196C357.067 43.8938 358.817 40.6843 354.747 38.207C350.945 35.8924 349.033 38.2301 346.918 41.7056L345.417 44.1712C343.156 47.8844 343.094 48.2538 342.986 49.3684C342.836 51.3535 343.854 52.6244 345.488 53.619C349.23 55.8974 351.335 53.3104 352.221 51.8548L352.582 51.2607ZM352.958 45.6269L349.215 43.3485L349.812 42.3683C351.132 40.1998 352.129 39.0968 353.763 40.0913C355.516 41.1582 354.73 42.7158 353.772 44.2902L352.958 45.6269Z" fill="#F0502C"/>
<path d="M356.686 53.2558L354.476 51.7433C353.13 53.7718 352.499 54.8155 352.522 56.1373C352.529 57.1116 352.938 58.3609 354.746 59.5984C357.272 61.327 359.802 61.0781 361.629 58.4092C362.67 56.8882 362.669 55.4124 362.095 53.4183L361.382 50.9499C361.068 49.8079 360.526 48.3833 361.292 47.2641C362.235 45.8866 363.377 46.3732 363.894 46.7267C365.042 47.5124 364.865 48.5713 363.922 49.9488L363.608 50.408L365.645 51.8026L366.195 50.9991C368.041 48.3015 367.361 46.4025 365.151 44.8901C362.511 43.083 360.397 43.9542 358.963 46.0492C357.804 47.7423 358.049 49.0475 358.527 50.9343L359.246 53.7018C359.596 55.0373 359.874 55.986 359.01 57.2487C358.342 58.2244 357.2 58.5384 356.167 57.8313C354.99 57.0259 354.898 55.8673 355.9 54.4037L356.686 53.2558Z" fill="#F0502C"/>
<path d="M379.666 67.4558L381.374 65.3672L372.779 58.3344L371.07 60.423L379.666 67.4558Z" fill="#F0502C"/>
<path d="M394.199 93.866L412.126 77.0902L410.106 74.9318C407.792 77.1925 394.699 89.9213 394.699 89.9213L406.993 71.6054L404.118 68.533L386.191 85.3088L388.258 87.5179C393.064 82.8303 403.513 72.671 403.513 72.671L391.252 90.7173L394.199 93.866Z" fill="#F0502C"/>
<path d="M406.349 99.9095L404.68 97.9011L404.412 98.1237C402.618 99.6149 401.561 99.5422 400.671 98.4711C399.246 96.7573 400.675 95.4797 402.496 93.9662L403.995 92.7198L408.491 98.1289L411.704 95.4581C412.99 94.3898 415.69 91.9189 412.641 88.2504C409.792 84.8228 407.222 86.4156 404.089 89.0196L401.866 90.8669C398.519 93.649 398.34 93.9787 397.876 94.9991C397.089 96.8304 397.639 98.3647 398.864 99.8375C401.668 103.211 404.501 101.445 405.813 100.355L406.349 99.9095ZM408.536 94.6962L405.731 91.3222L406.615 90.5877C408.57 88.9629 409.872 88.2424 411.096 89.7151C412.41 91.295 411.16 92.515 409.741 93.6946L408.536 94.6962Z" fill="#F0502C"/>
<path d="M427.244 108.651L425.549 106.285L412.472 113.135L423.048 102.792L420.87 99.7496L407.502 106.551L418.49 96.4257L416.735 93.975L404.506 106.652L406.483 109.412L419.734 102.864L409.246 113.271L411.182 115.976L427.244 108.651Z" fill="#F0502C"/>
<path d="M419.861 118.496L418.468 116.22C416.417 117.516 415.419 118.208 414.9 119.419C414.51 120.307 414.372 121.61 415.512 123.472C417.103 126.074 419.505 126.879 422.254 125.197C423.821 124.239 424.421 122.897 424.713 120.85L425.071 118.315C425.251 117.148 425.339 115.632 426.492 114.927C427.911 114.059 428.751 114.967 429.076 115.499C429.8 116.681 429.207 117.572 427.788 118.44L427.315 118.729L428.599 120.828L429.427 120.322C432.206 118.622 432.361 116.618 430.968 114.342C429.305 111.622 427.028 111.552 424.87 112.873C423.126 113.94 422.816 115.226 422.482 117.137L422.007 119.946C421.781 121.303 421.646 122.279 420.346 123.074C419.341 123.689 418.174 123.509 417.523 122.445C416.782 121.233 417.171 120.142 418.678 119.22L419.861 118.496Z" fill="#F0502C"/>
<path d="M435.323 140.683L437.737 139.463L432.714 129.527L430.3 130.748L435.323 140.683Z" fill="#F0502C"/>
<path d="M435.497 164.364L456.377 150.48L455.276 147.634L430.539 151.557L431.678 154.5L436.377 153.573L438.431 158.878L434.345 161.389L435.497 164.364ZM440.701 157.441L439.023 153.107L451.577 150.665L440.701 157.441Z" fill="#F0502C"/>
<path d="M452.345 159.92L435.816 165.319L436.701 168.03L445.924 165.017C448.404 164.207 450.848 163.738 452.036 167.374L452.155 167.738L454.931 166.831L454.791 166.401C454.132 164.384 452.114 163.58 450.069 163.48L453.176 162.465L452.345 159.92Z" fill="#F0502C"/>
<path d="M455.06 168.377L453.051 168.941L453.615 170.95L442.767 173.995C440.088 174.747 438.685 175.538 439.625 178.886C439.709 179.188 439.85 179.69 440.282 180.327L442.458 179.716C442.193 179.285 442.127 179.051 442.061 178.816C441.676 177.444 442.566 177.013 443.571 176.731L454.385 173.695L455.081 176.173L457.09 175.609L456.394 173.131L460.881 171.872L460.129 169.193L455.642 170.453L455.06 168.377Z" fill="#F0502C"/>
<path d="M461.226 179.61L464.704 178.752L464.046 176.085L460.569 176.942L461.226 179.61ZM441.372 184.505L458.255 180.342L457.597 177.675L440.715 181.837L441.372 184.505Z" fill="#F0502C"/>
<path d="M450.313 195.319L449.785 192.729C446.718 193.355 445.224 193.34 444.841 191.466C444.403 189.319 446.243 188.943 448.458 188.491L452.991 187.566C456.808 186.787 457.907 186.953 458.276 188.759C458.693 190.804 457.18 191.22 455.204 191.623L454.318 191.804L454.846 194.394L455.8 194.199C459.038 193.538 461.189 192.425 460.355 188.335C459.478 184.041 456.552 183.964 451.78 184.938L449.769 185.348C446.941 185.925 445.012 186.39 443.965 187.172C443.067 187.816 442.131 189.143 442.652 191.699C443.417 195.448 445.44 196.314 449.87 195.409L450.313 195.319Z" fill="#F0502C"/>
<path d="M444.75 201.825L468.996 197.963L468.553 195.181L444.307 199.043L444.75 201.825Z" fill="#F0502C"/>
<path d="M451.662 213.403L451.36 210.812L451.015 210.853C448.7 211.123 447.856 210.486 447.694 209.105C447.436 206.894 449.328 206.603 451.677 206.329L453.611 206.103L454.426 213.08L458.571 212.596C460.229 212.403 463.835 211.807 463.283 207.074C462.767 202.653 459.748 202.585 455.706 203.057L452.839 203.392C448.522 203.896 448.192 204.075 447.247 204.675C445.59 205.779 445.215 207.363 445.437 209.263C445.945 213.615 449.279 213.681 450.972 213.484L451.662 213.403ZM456.334 210.232L455.826 205.879L456.966 205.746C459.487 205.452 460.97 205.559 461.192 207.459C461.43 209.497 459.719 209.836 457.888 210.05L456.334 210.232Z" fill="#F0502C"/>
<path d="M452.675 217.859L452.514 215.181C450.082 215.362 448.869 215.504 447.837 216.334C447.07 216.939 446.333 218.03 446.465 220.221C446.648 223.281 448.4 225.13 451.634 224.936C453.477 224.826 454.644 223.918 455.87 222.239L457.385 220.159C458.096 219.209 458.89 217.905 460.247 217.823C461.916 217.723 462.232 218.926 462.27 219.552C462.353 220.943 461.407 221.453 459.737 221.553L459.181 221.587L459.329 224.056L460.303 223.997C463.572 223.801 464.656 222.096 464.496 219.418C464.304 216.219 462.316 215.081 459.777 215.234C457.725 215.357 456.843 216.352 455.644 217.89L453.895 220.159C453.053 221.256 452.473 222.059 450.943 222.151C449.761 222.222 448.811 221.511 448.736 220.259C448.65 218.833 449.51 218.049 451.284 217.942L452.675 217.859Z" fill="#F0502C"/>
<path d="M455.784 244.771L458.496 244.835L458.759 233.675L456.047 233.611L455.784 244.771Z" fill="#F0502C"/>
<path d="M444.916 265.474L469.289 268.436L469.645 265.502C466.426 265.181 448.26 263.323 448.26 263.323L470.195 260.98L470.703 256.802L446.33 253.84L445.965 256.843C452.644 257.515 467.143 258.997 467.143 258.997L445.436 261.193L444.916 265.474Z" fill="#F0502C"/>
<path d="M447.988 278.665L448.466 276.101L448.124 276.037C445.833 275.611 445.215 274.753 445.47 273.385C445.877 271.197 447.77 271.479 450.095 271.912L452.01 272.268L450.724 279.174L454.826 279.939C456.467 280.244 460.089 280.742 460.961 276.058C461.776 271.682 458.912 270.724 454.912 269.979L452.075 269.451C447.801 268.655 447.434 268.728 446.353 269.022C444.444 269.586 443.617 270.988 443.267 272.869C442.464 277.176 445.629 278.226 447.305 278.538L447.988 278.665ZM453.389 277.018L454.191 272.71L455.32 272.92C457.815 273.385 459.2 273.926 458.85 275.806C458.474 277.823 456.74 277.642 454.928 277.304L453.389 277.018Z" fill="#F0502C"/>
<path d="M454.905 300.461L455.641 297.634L441.956 291.949L456.728 293.461L457.675 289.826L443.841 283.887L458.709 285.855L459.472 282.927L441.839 281.64L440.979 284.938L454.543 290.951L439.778 289.549L438.937 292.779L454.905 300.461Z" fill="#F0502C"/>
<path d="M442.736 301.024L443.593 298.48C441.269 297.734 440.09 297.41 438.821 297.792C437.884 298.065 436.79 298.8 436.089 300.881C435.109 303.789 436.039 306.162 439.111 307.197C440.862 307.787 442.286 307.383 444.053 306.286L446.24 304.926C447.256 304.312 448.483 303.401 449.771 303.835C451.357 304.369 451.199 305.603 450.999 306.198C450.554 307.519 449.484 307.637 447.898 307.103L447.369 306.925L446.579 309.271L447.504 309.582C450.61 310.628 452.256 309.454 453.113 306.91C454.137 303.871 452.72 302.069 450.309 301.257C448.36 300.6 447.167 301.192 445.477 302.168L443.003 303.615C441.81 304.317 440.971 304.843 439.517 304.354C438.394 303.975 437.78 302.959 438.181 301.77C438.637 300.415 439.729 300.011 441.414 300.578L442.736 301.024Z" fill="#F0502C"/>
<path d="M435.527 327.223L438.023 328.308L442.488 318.038L439.992 316.953L435.527 327.223Z" fill="#F0502C"/>
<path d="M417.229 342.368L441.247 349.678L442.747 347.016L423.977 330.387L422.426 333.14L426.132 336.183L423.337 341.145L418.796 339.584L417.229 342.368ZM425.892 341.987L428.175 337.932L438.051 346.085L425.892 341.987Z" fill="#F0502C"/>
<path d="M431.508 352.434L416.768 343.21L415.255 345.627L423.48 350.774C425.691 352.158 427.618 353.733 425.588 356.976L425.385 357.3L427.862 358.85L428.102 358.467C429.227 356.668 428.55 354.604 427.316 352.97L430.087 354.704L431.508 352.434Z" fill="#F0502C"/>
<path d="M426.771 359.925L425.05 358.745L423.87 360.466L414.577 354.095C412.282 352.522 410.775 351.953 408.809 354.822C408.632 355.08 408.337 355.51 408.125 356.25L409.989 357.528C410.15 357.048 410.287 356.847 410.425 356.646C411.231 355.47 412.132 355.877 412.993 356.467L422.258 362.818L420.803 364.941L422.524 366.121L423.979 363.998L427.823 366.633L429.396 364.338L425.552 361.703L426.771 359.925Z" fill="#F0502C"/>
<path d="M422.115 371.857L425.004 373.974L426.628 371.758L423.739 369.641L422.115 371.857ZM405.62 359.771L419.646 370.048L421.27 367.832L407.244 357.555L405.62 359.771Z" fill="#F0502C"/>
<path d="M403.024 373.573L404.673 371.508C402.227 369.555 401.281 368.399 402.475 366.904C403.842 365.192 405.31 366.364 407.076 367.775L410.69 370.661C413.734 373.091 414.31 374.041 413.16 375.482C411.858 377.112 410.57 376.217 408.994 374.958L408.287 374.394L406.638 376.46L407.399 377.067C409.981 379.129 412.214 380.066 414.818 376.805C417.552 373.381 415.736 371.086 411.932 368.047L410.328 366.767C408.073 364.966 406.48 363.783 405.209 363.48C404.139 363.204 402.521 363.336 400.893 365.374C398.506 368.363 399.138 370.47 402.671 373.291L403.024 373.573Z" fill="#F0502C"/>
<path d="M394.521 373.468L413.053 389.573L414.901 387.446L396.368 371.342L394.521 373.468Z" fill="#F0502C"/>
<path d="M390.166 386.373L391.966 384.469L391.712 384.229C390.011 382.621 389.957 381.56 390.916 380.544C392.452 378.92 393.896 380.189 395.623 381.82L397.044 383.164L392.197 388.292L395.244 391.172C396.462 392.324 399.248 394.716 402.535 391.238C405.607 387.989 403.711 385.62 400.741 382.813L398.634 380.821C395.461 377.822 395.111 377.683 394.039 377.343C392.12 376.779 390.658 377.512 389.338 378.909C386.315 382.107 388.415 384.717 389.658 385.893L390.166 386.373ZM395.622 387.924L398.645 384.725L399.483 385.517C401.336 387.269 402.21 388.48 400.891 389.876C399.475 391.374 398.109 390.276 396.764 389.004L395.622 387.924Z" fill="#F0502C"/>
<path d="M387.22 389.721L389.148 387.873C387.443 386.145 386.553 385.316 385.259 385.068C384.306 384.876 383.003 385.02 381.425 386.532C379.222 388.643 378.948 391.164 381.179 393.493C382.451 394.82 383.892 395.12 385.955 394.968L388.51 394.777C389.689 394.704 391.191 394.466 392.126 395.442C393.278 396.644 392.57 397.659 392.119 398.091C391.118 399.051 390.12 398.662 388.968 397.46L388.585 397.06L386.807 398.763L387.479 399.464C389.734 401.818 391.727 401.542 393.655 399.694C395.959 397.486 395.54 395.245 393.788 393.417C392.373 391.94 391.049 391.912 389.109 391.993L386.261 392.129C384.886 392.198 383.903 392.275 382.847 391.173C382.032 390.322 381.959 389.143 382.86 388.279C383.887 387.295 385.036 387.443 386.26 388.72L387.22 389.721Z" fill="#F0502C"/>
<path d="M368.561 409.39L370.242 411.506L378.95 404.585L377.268 402.469L368.561 409.39Z" fill="#F0502C"/>
<path d="M345.781 414.355L359.039 434.979L361.522 433.382C359.717 430.703 349.566 415.555 349.566 415.555L365.349 430.922L368.883 428.65L355.625 408.026L353.084 409.66C356.825 415.223 364.927 427.312 364.927 427.312L349.403 412.026L345.781 414.355Z" fill="#F0502C"/>
<path d="M337.658 425.242L339.927 423.964L339.757 423.662C338.615 421.635 338.875 420.611 340.086 419.93C342.022 418.839 343.02 420.469 344.178 422.526L345.133 424.221L339.021 427.663L341.066 431.294C341.884 432.746 343.824 435.837 347.969 433.503C351.842 431.322 350.74 428.515 348.746 424.975L347.332 422.464C345.201 418.682 344.91 418.448 343.992 417.809C342.337 416.709 340.733 416.975 339.069 417.912C335.256 420.059 336.482 423.155 337.317 424.637L337.658 425.242ZM342.381 428.321L346.193 426.174L346.755 427.173C347.999 429.381 348.473 430.788 346.809 431.725C345.024 432.731 344.051 431.286 343.148 429.683L342.381 428.321Z" fill="#F0502C"/>
<path d="M325.369 444.591L328.01 443.342L323.591 429.198L331.908 441.498L335.304 439.893L330.984 425.471L339.013 438.138L341.749 436.845L331.423 422.493L328.342 423.95L332.432 438.212L324.035 425.987L321.017 427.415L325.369 444.591Z" fill="#F0502C"/>
<path d="M317.045 435.408L319.536 434.444C318.627 432.193 318.124 431.086 317.024 430.359C316.219 429.815 314.961 429.447 312.923 430.236C310.077 431.337 308.854 433.559 310.019 436.566C310.682 438.281 311.897 439.112 313.86 439.765L316.292 440.572C317.408 440.958 318.886 441.315 319.374 442.577C319.975 444.129 318.931 444.794 318.348 445.019C317.055 445.52 316.284 444.777 315.683 443.225L315.482 442.707L313.186 443.596L313.537 444.502C314.714 447.542 316.659 448.053 319.15 447.089C322.125 445.937 322.601 443.708 321.687 441.347C320.948 439.439 319.737 438.903 317.915 438.233L315.234 437.262C313.938 436.797 313.002 436.49 312.451 435.067C312.025 433.968 312.411 432.851 313.575 432.401C314.901 431.887 315.906 432.465 316.545 434.115L317.045 435.408Z" fill="#F0502C"/>
<path d="M292.415 446.714L293.175 449.318L303.892 446.193L303.132 443.589L292.415 446.714Z" fill="#F0502C"/>
<path d="M269.094 442.704L279.04 465.797L282.046 465.222L282.62 440.114L279.512 440.709L279.581 445.511L273.98 446.584L272.236 442.102L269.094 442.704ZM274.989 449.081L279.566 448.205L279.72 461.029L274.989 449.081Z" fill="#F0502C"/>
<path d="M270.489 459.98L268.114 442.755L265.289 443.144L266.614 452.756C266.971 455.34 266.998 457.828 263.208 458.351L262.829 458.403L263.228 461.297L263.676 461.235C265.778 460.945 266.928 459.102 267.39 457.107L267.836 460.346L270.489 459.98Z" fill="#F0502C"/>
<path d="M261.749 461.146L261.55 459.069L259.473 459.268L258.397 448.052C258.131 445.283 257.601 443.762 254.139 444.094C253.828 444.124 253.308 444.174 252.605 444.486L252.821 446.736C253.292 446.551 253.534 446.528 253.777 446.504C255.196 446.368 255.462 447.321 255.562 448.359L256.634 459.541L254.073 459.786L254.272 461.864L256.834 461.618L257.279 466.257L260.048 465.991L259.603 461.352L261.749 461.146Z" fill="#F0502C"/>
<path d="M249.578 465.229L249.807 468.803L252.549 468.627L252.32 465.053L249.578 465.229ZM248.269 444.822L249.382 462.175L252.124 461.999L251.011 444.646L248.269 444.822Z" fill="#F0502C"/>
<path d="M236.012 451.681L238.655 451.628C238.593 448.498 238.876 447.032 240.789 446.993C242.98 446.95 243.017 448.827 243.063 451.088L243.155 455.713C243.233 459.608 242.871 460.659 241.028 460.696C238.942 460.738 238.806 459.175 238.766 457.158L238.748 456.254L236.105 456.306L236.124 457.28C236.19 460.584 236.898 462.901 241.071 462.817C245.453 462.73 246.056 459.865 245.959 454.996L245.918 452.944C245.86 450.058 245.751 448.077 245.171 446.906C244.699 445.906 243.562 444.746 240.954 444.798C237.128 444.875 235.913 446.708 236.003 451.229L236.012 451.681Z" fill="#F0502C"/>
<path d="M230.612 445.114L230.171 469.662L232.987 469.712L233.429 445.164L230.612 445.114Z" fill="#F0502C"/>
<path d="M217.966 449.882L220.569 450.037L220.59 449.69C220.728 447.364 221.503 446.643 222.891 446.726C225.113 446.858 225.069 448.771 224.929 451.132L224.813 453.076L217.801 452.659L217.553 456.825C217.454 458.491 217.411 462.147 222.167 462.429C226.611 462.693 227.205 459.733 227.446 455.671L227.617 452.79C227.875 448.45 227.757 448.095 227.331 447.059C226.533 445.235 225.039 444.589 223.129 444.475C218.755 444.216 218.108 447.487 218.007 449.188L217.966 449.882ZM220.272 455.036L224.646 455.296L224.578 456.441C224.428 458.975 224.064 460.417 222.154 460.304C220.106 460.182 220.07 458.438 220.18 456.598L220.272 455.036Z" fill="#F0502C"/>
<path d="M213.497 449.905L216.148 450.199C216.381 447.785 216.446 446.573 215.807 445.421C215.344 444.568 214.399 443.662 212.23 443.421C209.201 443.084 207.093 444.488 206.737 447.69C206.534 449.514 207.227 450.811 208.665 452.296L210.448 454.132C211.259 454.989 212.403 455.987 212.253 457.33C212.07 458.982 210.838 459.089 210.218 459.021C208.841 458.868 208.501 457.854 208.684 456.201L208.745 455.65L206.301 455.379L206.194 456.343C205.834 459.579 207.322 460.929 209.973 461.224C213.141 461.576 214.591 459.82 214.87 457.307C215.096 455.276 214.269 454.243 212.965 452.808L211.037 450.712C210.104 449.702 209.415 448.998 209.583 447.483C209.713 446.313 210.57 445.502 211.81 445.639C213.221 445.796 213.845 446.772 213.65 448.528L213.497 449.905Z" fill="#F0502C"/>
<path d="M186.342 448.441L185.802 451.099L196.741 453.324L197.282 450.666L186.342 448.441Z" fill="#F0502C"/>
<path d="M167.952 434.096L160.716 457.558L163.541 458.429C164.427 455.318 169.476 437.769 169.476 437.769L167.894 459.771L171.915 461.012L179.151 437.55L176.26 436.658C174.414 443.113 170.386 457.119 170.386 457.119L172.072 435.367L167.952 434.096Z" fill="#F0502C"/>
<path d="M154.426 434.777L156.864 435.703L156.988 435.378C157.815 433.199 158.769 432.743 160.069 433.237C162.15 434.027 161.536 435.84 160.697 438.051L160.006 439.871L153.438 437.378L151.957 441.279C151.365 442.84 150.231 446.316 154.685 448.007C158.847 449.587 160.298 446.939 161.743 443.135L162.767 440.436C164.31 436.372 164.303 435.998 164.206 434.882C163.99 432.903 162.757 431.84 160.969 431.161C156.873 429.606 155.277 432.534 154.673 434.127L154.426 434.777ZM155.087 440.385L159.183 441.94L158.776 443.013C157.875 445.386 157.096 446.653 155.308 445.974C153.39 445.246 153.877 443.571 154.531 441.848L155.087 440.385Z" fill="#F0502C"/>
<path d="M131.77 437.732L134.421 438.958L142.446 426.501L138.335 440.769L141.743 442.346L150.045 429.787L145.468 444.07L148.213 445.34L152.611 428.216L149.518 426.785L141.193 439.065L145.195 424.784L142.165 423.382L131.77 437.732Z" fill="#F0502C"/>
<path d="M133.33 425.638L135.687 426.924C136.825 424.765 137.348 423.66 137.192 422.344C137.086 421.373 136.552 420.169 134.624 419.117C131.931 417.648 129.433 418.152 127.88 420.998C126.996 422.62 127.146 424.092 127.919 426.022L128.879 428.412C129.307 429.519 129.992 430.885 129.341 432.079C128.54 433.548 127.352 433.178 126.801 432.877C125.577 432.21 125.646 431.136 126.447 429.667L126.715 429.177L124.542 427.992L124.074 428.849C122.505 431.726 123.376 433.551 125.732 434.836C128.548 436.372 130.568 435.29 131.786 433.056C132.771 431.25 132.396 429.973 131.728 428.14L130.732 425.452C130.248 424.156 129.875 423.237 130.61 421.891C131.177 420.85 132.284 420.422 133.386 421.023C134.641 421.707 134.849 422.854 133.998 424.414L133.33 425.638Z" fill="#F0502C"/>
<path d="M108.893 413.745L107.374 415.997L116.64 422.248L118.159 419.997L108.893 413.745Z" fill="#F0502C"/>
<path d="M97.0798 393.309L85.7585 415.76L88.1294 417.695L107.749 402.016L105.297 400.015L101.66 403.152L97.2415 399.546L99.5585 395.332L97.0798 393.309ZM95.9745 401.923L99.5847 404.87L89.8515 413.22L95.9745 401.923Z" fill="#F0502C"/>
<path d="M84.7326 405.491L96.4058 392.603L94.2923 390.689L87.7786 397.88C86.0276 399.813 84.1381 401.433 81.3028 398.865L81.0193 398.608L79.0582 400.773L79.3933 401.077C80.9656 402.501 83.1172 402.198 84.9425 401.27L82.7479 403.693L84.7326 405.491Z" fill="#F0502C"/>
<path d="M78.2855 399.398L79.7461 397.917L78.2646 396.456L86.1519 388.456C88.0993 386.481 88.9232 385.102 86.4541 382.668C86.2319 382.449 85.8615 382.083 85.1726 381.745L83.5902 383.35C84.0333 383.592 84.2061 383.762 84.379 383.933C85.3913 384.931 84.8332 385.744 84.1028 386.485L76.2399 394.46L74.4128 392.659L72.9522 394.14L74.7793 395.942L71.5173 399.25L73.4926 401.198L76.7546 397.889L78.2855 399.398Z" fill="#F0502C"/>
<path d="M67.3997 392.757L64.8206 395.229L66.7163 397.207L69.2953 394.735L67.3997 392.757ZM82.1226 378.648L69.6031 390.646L71.4988 392.624L84.0182 380.626L82.1226 378.648Z" fill="#F0502C"/>
<path d="M68.9554 373.748L70.6998 375.73C73.0472 373.664 74.3492 372.935 75.6116 374.37C77.0576 376.013 75.6492 377.252 73.9538 378.744L70.4849 381.797C67.5637 384.368 66.5287 384.769 65.3122 383.387C63.9351 381.822 65.0399 380.711 66.5527 379.38L67.2308 378.783L65.4865 376.801L64.7562 377.443C62.2783 379.624 60.9669 381.657 63.7212 384.787C66.6132 388.073 69.1881 386.687 72.8396 383.473L74.3784 382.119C76.5433 380.214 77.984 378.854 78.5036 377.656C78.9616 376.651 79.1139 375.036 77.3925 373.08C74.8677 370.211 72.6852 370.466 69.2945 373.449L68.9554 373.748Z" fill="#F0502C"/>
<path d="M70.4906 365.361L51.3804 380.776L53.1489 382.969L72.2591 367.554L70.4906 365.361Z" fill="#F0502C"/>
<path d="M58.9801 358.651L60.5189 360.738L60.7971 360.533C62.6611 359.158 63.7041 359.291 64.5248 360.404C65.838 362.184 64.3488 363.368 62.457 364.763L60.899 365.913L56.7544 360.293L53.4158 362.755C52.0804 363.74 49.2618 366.033 52.0728 369.845C54.6991 373.406 57.3379 371.975 60.593 369.574L62.9021 367.871C66.3798 365.307 66.5759 364.99 67.0955 364.006C67.9809 362.236 67.5232 360.684 66.3947 359.153C63.8095 355.648 60.8997 357.235 59.5365 358.241L58.9801 358.651ZM56.5127 363.692L59.098 367.198L58.1799 367.875C56.1489 369.373 54.8163 370.012 53.6878 368.482C52.4772 366.84 53.7862 365.703 55.2607 364.616L56.5127 363.692Z" fill="#F0502C"/>
<path d="M55.6982 355.381L57.1746 357.615C59.1863 356.244 60.1634 355.514 60.641 354.282C61.0015 353.377 61.0936 352.065 59.8856 350.237C58.1983 347.684 55.7609 346.961 53.0627 348.744C51.5251 349.76 50.9698 351.127 50.7493 353.191L50.4786 355.746C50.3389 356.922 50.3038 358.446 49.1723 359.193C47.7797 360.114 46.9055 359.233 46.5604 358.71C45.7934 357.55 46.3565 356.636 47.7491 355.715L48.2133 355.409L46.852 353.349L46.0396 353.886C43.3124 355.688 43.2271 357.703 44.7035 359.937C46.4676 362.607 48.7535 362.596 50.8715 361.197C52.5832 360.066 52.8489 358.764 53.1171 356.836L53.495 354.002C53.6741 352.633 53.7745 351.65 55.051 350.806C56.0375 350.154 57.2136 350.294 57.9039 351.339C58.6901 352.528 58.3384 353.636 56.8587 354.614L55.6982 355.381Z" fill="#F0502C"/>
<path d="M39.5629 333.578L37.1771 334.869L42.4883 344.687L44.8742 343.397L39.5629 333.578Z" fill="#F0502C"/>
<path d="M38.761 310.23L16.1223 319.733L17.2664 322.459C20.2216 321.143 36.9217 313.756 36.9217 313.756L19.0296 326.659L20.6582 330.539L43.2969 321.037L42.1259 318.247C35.991 320.973 22.6629 326.869 22.6629 326.869L40.43 314.207L38.761 310.23Z" fill="#F0502C"/>
<path d="M29.5336 300.255L30.3879 302.719L30.7165 302.605C32.918 301.842 33.88 302.281 34.3357 303.596C35.0647 305.698 33.2803 306.391 31.046 307.165L29.2059 307.803L26.9049 301.166L22.962 302.533C21.3848 303.08 17.9917 304.44 19.5522 308.941C21.0103 313.147 23.9728 312.562 27.8171 311.229L30.5443 310.284C34.6516 308.86 34.9346 308.614 35.728 307.824C37.1076 306.389 37.1321 304.761 36.5056 302.954C35.0704 298.814 31.8008 299.469 30.1907 300.027L29.5336 300.255ZM25.6564 304.359L27.0916 308.499L26.0073 308.875C23.6087 309.707 22.1375 309.922 21.511 308.115C20.8389 306.177 22.4363 305.476 24.1777 304.872L25.6564 304.359Z" fill="#F0502C"/>
<path d="M12.7451 284.768L13.5051 287.589L28.2092 285.752L14.6271 291.753L15.6042 295.379L30.564 293.69L16.6718 299.342L17.459 302.263L33.416 294.65L32.5293 291.359L17.7684 292.851L31.2898 286.759L30.4212 283.535L12.7451 284.768Z" fill="#F0502C"/>
<path d="M23.1421 278.254L23.6595 280.882C26.0413 280.377 27.2221 280.074 28.132 279.115C28.8093 278.415 29.3925 277.236 28.9692 275.087C28.3779 272.084 26.398 270.489 23.2247 271.114C21.4163 271.47 20.3833 272.524 19.3958 274.349L18.1751 276.61C17.5991 277.645 16.988 279.041 15.6572 279.303C14.0194 279.626 13.5454 278.478 13.4245 277.864C13.1557 276.499 14.0238 275.868 15.6616 275.545L16.2075 275.438L15.7305 273.015L14.7751 273.203C11.5677 273.835 10.7234 275.667 11.2407 278.294C11.8589 281.433 13.9774 282.292 16.4683 281.802C18.4814 281.405 19.2213 280.303 20.2015 278.621L21.6275 276.143C22.3131 274.944 22.7794 274.073 24.2808 273.777C25.4409 273.549 26.4758 274.124 26.7177 275.353C26.9932 276.752 26.2472 277.643 24.507 277.986L23.1421 278.254Z" fill="#F0502C"/>
<path d="M16.5047 251.93L13.8074 252.217L14.9897 263.318L17.687 263.031L16.5047 251.93Z" fill="#F0502C"/>
<path d="M24.549 229.666L0.0881649 235.489L0.137836 238.549L24.7725 243.436L24.7211 240.271L19.9786 239.514L19.8861 233.811L24.6009 232.865L24.549 229.666ZM17.2519 234.376L17.3275 239.035L4.66867 236.98L17.2519 234.376Z" fill="#F0502C"/>
<path d="M7.26758 228.065L24.6558 228.761L24.7698 225.909L15.0672 225.521C12.459 225.416 10.0024 225.005 10.1554 221.179L10.1707 220.797L7.24949 220.68L7.23141 221.132C7.14656 223.253 8.76018 224.711 10.6437 225.518L7.37469 225.387L7.26758 228.065Z" fill="#F0502C"/>
<path d="M7.5155 219.224L9.60208 219.39L9.76901 217.304L21.0365 218.205C23.8187 218.428 25.4142 218.17 25.6924 214.693C25.7174 214.38 25.7592 213.858 25.5742 213.108L23.3137 212.928C23.4139 213.426 23.3944 213.669 23.3749 213.912C23.2608 215.338 22.2732 215.434 21.2299 215.351L9.99714 214.452L10.203 211.879L8.11644 211.712L7.91056 214.285L3.25053 213.912L3.02796 216.695L7.68799 217.067L7.5155 219.224Z" fill="#F0502C"/>
<path d="M5.79289 206.557L2.23304 206.159L1.92822 208.89L5.48807 209.287L5.79289 206.557ZM26.1151 208.826L8.83431 206.896L8.5295 209.627L25.8103 211.556L26.1151 208.826Z" fill="#F0502C"/>
<path d="M21.4842 195.545L21.0813 198.157C24.1745 198.634 25.5704 199.166 25.2787 201.057C24.9447 203.222 23.0887 202.936 20.8547 202.591L16.2835 201.886C12.4341 201.292 11.4613 200.755 11.7423 198.933C12.0605 196.871 13.623 197.007 15.6165 197.314L16.5101 197.452L16.9131 194.84L15.9507 194.691C12.6856 194.188 10.2821 194.486 9.64579 198.61C8.9777 202.94 11.6953 204.028 16.507 204.771L18.5349 205.083C21.3875 205.524 23.3572 205.757 24.6106 205.387C25.6763 205.094 27.0145 204.175 27.4122 201.597C27.9955 197.816 26.3991 196.303 21.931 195.614L21.4842 195.545Z" fill="#F0502C"/>
<path d="M28.9561 191.423L4.89507 186.758L4.35986 189.518L28.4209 194.183L28.9561 191.423Z" fill="#F0502C"/>
<path d="M26.4395 178.126L25.8275 180.662L26.1655 180.743C28.4305 181.29 29.0029 182.179 28.6765 183.532C28.1543 185.695 26.2787 185.314 23.9799 184.759L22.0868 184.302L23.735 177.473L19.6784 176.494C18.0557 176.103 14.4653 175.415 13.3474 180.046C12.303 184.373 15.1124 185.481 19.0676 186.435L21.8735 187.113C26.0992 188.133 26.4698 188.079 27.5644 187.842C29.5007 187.38 30.4006 186.023 30.8494 184.163C31.8775 179.904 28.772 178.689 27.1156 178.289L26.4395 178.126ZM20.9595 179.487L19.9314 183.746L18.8158 183.477C16.348 182.881 14.9934 182.268 15.4422 180.409C15.9236 178.414 17.6465 178.687 19.4382 179.119L20.9595 179.487Z" fill="#F0502C"/>
<path d="M27.091 173.618L26.3233 176.183C28.6654 176.848 29.8514 177.13 31.1036 176.706C32.0294 176.402 33.0948 175.632 33.7229 173.533C34.6002 170.601 33.5927 168.267 30.4942 167.34C28.7285 166.811 27.3231 167.262 25.5985 168.416L23.4643 169.846C22.4721 170.493 21.2803 171.443 19.9809 171.054C18.3817 170.576 18.4975 169.34 18.6769 168.74C19.0757 167.408 20.1382 167.254 21.7374 167.732L22.2705 167.892L22.9783 165.526L22.0455 165.247C18.9137 164.31 17.3124 165.537 16.5447 168.102C15.6274 171.167 17.1009 172.915 19.533 173.643C21.4987 174.231 22.6674 173.601 24.3189 172.57L26.7361 171.043C27.9014 170.303 28.7205 169.749 30.1864 170.188C31.3192 170.527 31.9661 171.519 31.6071 172.719C31.1984 174.085 30.1228 174.525 28.4236 174.017L27.091 173.618Z" fill="#F0502C"/>
<path d="M33.4899 147.259L30.9703 146.254L26.8354 156.623L29.3551 157.628L33.4899 147.259Z" fill="#F0502C"/>
<path d="M50.8892 131.677L29.0875 120.386L27.7281 123.011C30.6319 124.436 47.0042 132.524 47.0042 132.524L25.6329 127.056L23.6978 130.792L45.4994 142.084L46.8909 139.397C40.8669 136.434 27.8 129.98 27.8 129.98L48.906 135.506L50.8892 131.677Z" fill="#F0502C"/>
<path d="M52.4978 118.08L51.1416 120.323L51.4406 120.504C53.4444 121.715 53.7227 122.741 52.9993 123.938C51.842 125.852 50.1609 124.917 48.1271 123.687L46.4523 122.674L50.1052 116.633L46.5163 114.463C45.0807 113.595 41.85 111.846 39.3725 115.943C37.0578 119.771 39.4129 121.685 42.9121 123.801L45.3944 125.302C49.1329 127.563 49.5043 127.624 50.6248 127.73C52.6202 127.874 53.8945 126.848 54.8891 125.203C57.1676 121.434 54.5615 119.328 53.096 118.442L52.4978 118.08ZM46.8348 117.719L44.5563 121.487L43.5693 120.89C41.3861 119.57 40.2746 118.572 41.2692 116.927C42.3362 115.162 43.9039 115.947 45.489 116.905L46.8348 117.719Z" fill="#F0502C"/>
<path d="M53.6752 95.4821L52.0101 97.8775L62.8746 107.925L49.5521 101.414L47.4113 104.493L58.3279 114.831L45.0722 107.858L43.3477 110.339L59.4296 117.627L61.3722 114.832L50.7345 104.519L64.0879 110.926L65.9909 108.188L53.6752 95.4821Z" fill="#F0502C"/>
<path d="M65.329 99.1153L63.642 101.204C65.5627 102.711 66.5559 103.423 67.8788 103.505C68.8533 103.575 70.1344 103.266 71.5147 101.557C73.4427 99.1696 73.3947 96.6208 70.872 94.5833C69.4344 93.4221 67.9592 93.3063 65.9206 93.7215L63.3968 94.2379C62.2304 94.4612 60.7636 94.89 59.7057 94.0355C58.4037 92.9839 58.9806 91.8811 59.375 91.3929C60.2513 90.3079 61.2957 90.5687 62.5977 91.6203L63.0317 91.9709L64.5872 90.045L63.8277 89.4315C61.2779 87.372 59.3259 87.902 57.6389 89.9907C55.6233 92.4863 56.3265 94.6678 58.3066 96.2671C59.907 97.5598 61.231 97.4189 63.1548 97.0903L65.9779 96.5916C67.3405 96.3475 68.3107 96.1451 69.5043 97.1091C70.4265 97.854 70.6498 99.0204 69.8611 99.9969C68.9628 101.109 67.7974 101.109 66.414 99.9917L65.329 99.1153Z" fill="#F0502C"/>
<path d="M81.3161 77.1993L79.3629 75.3171L71.6167 83.3553L73.5699 85.2376L81.3161 77.1993Z" fill="#F0502C"/>
<path d="M103.536 69.1019L83.4227 54.0117L81.1012 56.0058L93.0887 78.0749L95.4894 76.0129L93.0409 71.8813L97.3673 68.1652L101.109 71.1865L103.536 69.1019ZM95.2495 66.5001L91.7145 69.5365L85.204 58.4873L95.2495 66.5001Z" fill="#F0502C"/>
<path d="M93.7705 54.8985L104.377 68.6352L106.63 66.8957L100.712 59.2306C99.1205 57.1701 97.8616 55.0286 100.884 52.6951L101.186 52.4617L99.4039 50.154L99.0468 50.4297C97.3709 51.7238 97.2902 53.891 97.88 55.8476L95.886 53.2651L93.7705 54.8985Z" fill="#F0502C"/>
<path d="M100.733 49.4415L101.94 51.1438L103.642 49.9371L110.158 59.1296C111.767 61.3993 112.984 62.4548 115.821 60.4438C116.077 60.2628 116.502 59.9611 116.957 59.3402L115.65 57.496C115.333 57.8911 115.135 58.0318 114.936 58.1726C113.773 58.9971 113.068 58.3033 112.465 57.4521L105.969 48.2881L108.068 46.7999L106.862 45.0976L104.762 46.5858L102.067 42.7839L99.7976 44.3928L102.492 48.1946L100.733 49.4415Z" fill="#F0502C"/>
<path d="M109.333 40.0615L107.363 37.0885L105.083 38.5995L107.053 41.5725L109.333 40.0615ZM120.58 57.0337L111.016 42.6016L108.736 44.1126L118.299 58.5448L120.58 57.0337Z" fill="#F0502C"/>
<path d="M127.735 44.8407L125.473 46.2071C127.091 48.8862 127.578 50.2983 125.941 51.2871C124.066 52.4198 123.095 50.8123 121.926 48.8773L119.535 44.9181C117.521 41.5841 117.31 40.4933 118.887 39.5404C120.673 38.4617 121.572 39.7473 122.614 41.4739L123.082 42.2478L125.344 40.8815L124.841 40.0479C123.133 37.2199 121.363 35.5671 117.791 37.7245C114.04 39.9898 114.948 42.7724 117.465 46.94L118.526 48.6964C120.018 51.1671 121.103 52.828 122.19 53.5524C123.099 54.182 124.663 54.6188 126.895 53.2704C130.17 51.2927 130.306 49.0976 127.969 45.2277L127.735 44.8407Z" fill="#F0502C"/>
<path d="M135.7 47.8676L123.894 26.34L121.424 27.6945L133.23 49.222L135.7 47.8676Z" fill="#F0502C"/>
<path d="M144.307 37.4555L141.969 38.6128L142.124 38.9244C143.158 41.0125 142.843 42.0222 141.596 42.6394C139.601 43.6269 138.69 41.9437 137.641 39.8244L136.777 38.0791L143.072 34.9622L141.221 31.2224C140.48 29.7264 138.704 26.5311 134.434 28.6451C130.445 30.6201 131.398 33.4856 133.204 37.1319L134.484 39.7187C136.413 43.6144 136.692 43.8644 137.576 44.5522C139.173 45.7404 140.791 45.5601 142.505 44.7115C146.432 42.7673 145.372 39.6059 144.615 38.0788L144.307 37.4555ZM139.748 34.1249L135.821 36.0691L135.311 35.0406C134.185 32.7655 133.786 31.3331 135.5 30.4845C137.339 29.5741 138.235 31.0707 139.053 32.7224L139.748 34.1249Z" fill="#F0502C"/>
<path d="M148.158 35.0717L145.698 36.1296C146.691 38.3522 147.236 39.4429 148.365 40.131C149.192 40.6459 150.467 40.9686 152.479 40.103C155.291 38.894 156.434 36.6231 155.156 33.652C154.428 31.9588 153.18 31.1703 151.189 30.5883L148.722 29.8699C147.589 29.5243 146.096 29.2202 145.56 27.9742C144.9 26.4408 145.922 25.7363 146.497 25.489C147.775 24.9394 148.575 25.6553 149.235 27.1888L149.455 27.7L151.723 26.7245L151.338 25.83C150.047 22.8269 148.078 22.3864 145.618 23.4443C142.679 24.7083 142.284 26.96 143.287 29.2922C144.098 31.1771 145.332 31.6687 147.182 32.2737L149.904 33.1471C151.22 33.5655 152.17 33.8383 152.775 35.244C153.242 36.3302 152.896 37.4631 151.746 37.9577C150.436 38.521 149.408 37.9789 148.707 36.3496L148.158 35.0717Z" fill="#F0502C"/>
<path d="M172.476 23.0458L171.629 20.4688L161.023 23.9536L161.87 26.5306L172.476 23.0458Z" fill="#F0502C"/>
</svg>
