<svg width="22" height="22" viewBox="0 0 22 22" fill="none" xmlns="http://www.w3.org/2000/svg">
<path d="M19.4077 22L12.6363 15.2286C11.3639 16.0298 9.86425 16.5 8.25 16.5C3.69325 16.5 0 12.8068 0 8.25C0 3.69325 3.69325 0 8.25 0C12.8068 0 16.5 3.69325 16.5 8.25C16.5 9.86425 16.0288 11.3648 15.2286 12.6363L22 19.4077L19.4077 22ZM8.25 14.6667C11.7874 14.6667 14.6667 11.7883 14.6667 8.25C14.6667 4.71167 11.7874 1.83333 8.25 1.83333C4.71258 1.83333 1.83333 4.71167 1.83333 8.25C1.83333 11.7883 4.71258 14.6667 8.25 14.6667Z" fill="#AD131C"/>
</svg>
