<svg width="53" height="53" viewBox="0 0 53 53" fill="none" xmlns="http://www.w3.org/2000/svg">
<g clip-path="url(#clip0)">
<path d="M31.8666 11.4677C42.5328 11.3717 50.3967 20.7825 49.6381 30.6637C49.3301 34.6784 47.856 38.289 45.0536 41.2107C41.6318 44.7749 38.0941 48.2431 34.5762 51.7345C33.2942 52.9932 31.7241 53.3278 30.0612 52.662C28.3984 51.9962 27.4477 50.691 27.2357 48.9089C27.1512 48.3664 27.1977 47.8116 27.3711 47.2908C27.5446 46.7699 27.84 46.298 28.2327 45.9144L35.3612 38.6435C36.5239 37.4311 37.7131 36.2452 38.7599 34.96C41.1581 32.0383 41.4927 28.7822 39.8762 25.4332C38.1669 21.9187 35.2685 20.2061 31.3233 20.3253C29.1371 20.3717 27.3086 21.2032 25.7649 22.7004C24.2677 24.1513 22.7704 25.6452 21.2268 27.0497C19.7296 28.4045 17.7818 28.547 16.1421 27.5234C15.3196 27.0237 14.6834 26.2683 14.3311 25.3727C13.9787 24.4772 13.9295 23.4908 14.1911 22.5646C14.3103 22.1373 14.5223 21.6868 14.8072 21.329C16.9934 18.7155 19.2989 16.2212 22.1477 14.3198C25.0069 12.371 28.4077 11.373 31.8666 11.4677Z" fill="#9C9C9C"/>
<path d="M17.6792 41.4991C7.24811 41.5719 -0.708517 32.1379 0.0500453 22.2799C0.358108 18.4076 1.71292 14.8898 4.34967 12.0642C7.67542 8.49995 11.1933 5.10132 14.6383 1.65632C15.0192 1.27539 15.4465 0.967323 15.897 0.682448C17.6063 -0.364302 19.3652 -0.195364 20.9354 1.10976C22.2902 2.24926 22.8831 4.36595 22.1709 5.97914C21.9092 6.59857 21.409 7.14514 20.9354 7.64201C17.964 10.6829 14.9729 13.7238 12.0247 16.7646C10.8355 17.977 9.79211 19.2821 9.26873 20.9682C7.53298 26.5067 11.763 32.9926 18.2953 32.6613C20.4584 32.5421 22.31 31.8299 23.8769 30.3326C25.3741 28.8818 26.8482 27.411 28.415 25.9833C29.9122 24.6285 31.7407 24.4397 33.3572 25.3672C35.0201 26.2947 35.9244 28.1232 35.5667 30.0246C35.4518 30.6396 35.1905 31.218 34.8048 31.7106C32.6185 34.301 30.2899 36.7953 27.4643 38.7199C24.5228 40.714 21.1937 41.4759 17.6792 41.4991Z" fill="#9C9C9C"/>
</g>
<defs>
<clipPath id="clip0">
<rect width="53" height="53" fill="white"/>
</clipPath>
</defs>
</svg>
