<svg width="68" height="61" viewBox="0 0 68 61" fill="none" xmlns="http://www.w3.org/2000/svg">
<path opacity="0.8" fill-rule="evenodd" clip-rule="evenodd" d="M56.0562 9.03104C45.3514 2.83946 31.9685 5.60236 24.4541 14.9652L19.4664 12.0802C28.5986 -0.00511719 45.4725 -3.68954 58.9065 4.08273C62.562 6.19718 65.6116 8.96009 68 12.1404L62.9959 15.0345C61.1237 12.6825 58.811 10.6257 56.0562 9.03104ZM32.5209 32.5302C32.5267 32.5557 32.5226 32.5854 32.53 32.6127L27.3917 35.5859C27.3826 35.5595 27.3801 35.534 27.3736 35.5092L20.6388 39.3999C20.6487 39.4254 20.6561 39.4519 20.6635 39.4766L15.6677 42.3674C15.6586 42.3418 15.6512 42.3154 15.6405 42.2907L0 51.3334V9.55738L36.0966 30.4635L32.5209 32.5302ZM52.2459 15.6368C53.8011 16.536 55.1563 17.644 56.3089 18.9021L51.1632 21.8803C50.6207 21.4092 50.0336 20.9728 49.389 20.6007C45.0921 18.1134 39.8616 18.7585 36.2868 21.811L31.1452 18.8344C36.4572 13.09 45.1942 11.5588 52.2459 15.6368ZM41.789 33.8089C39.9686 32.7579 39.3437 30.4231 40.3959 28.6007C41.4473 26.7758 43.7732 26.1505 45.5935 27.2023C47.4139 28.2559 48.0346 30.5881 46.9841 32.4105C45.9352 34.2354 43.606 34.8608 41.789 33.8089ZM51.1336 39.1573L56.2637 42.1248C50.9549 47.9064 42.1883 49.459 35.1152 45.3671C33.611 44.4959 32.3266 43.3978 31.1995 42.1842L36.3115 39.2283C36.8227 39.6639 37.3686 40.0706 37.9729 40.4154C42.292 42.9176 47.5588 42.2511 51.1336 39.1573ZM31.3148 51.9695C42.0343 58.1701 55.4428 55.3891 62.9498 45.9924L67.9383 48.8774C58.8135 60.9974 41.9158 64.6983 28.4661 56.917C24.8542 54.8273 21.8549 52.0941 19.4821 48.9624L24.4533 46.0889C26.3049 48.3923 28.6028 50.4003 31.3148 51.9695Z" fill="white"/>
</svg>
