<svg width="72" height="32" viewBox="0 0 72 32" fill="none" xmlns="http://www.w3.org/2000/svg">
<path opacity="0.6" d="M14.5795 31.7674C14.4666 31.6531 14.3822 31.3941 14.3822 31.2199C14.3822 31.0179 14.2693 29.2656 14.1291 27.3098L13.8761 23.7424L14.1577 17.4448C14.438 11.0315 14.4666 10.8017 14.9442 10.8017C15.0285 10.8017 15.1973 10.8588 15.3102 10.9744C15.4789 11.1179 15.5633 11.923 15.8436 17.3291L16.181 23.5404L15.8436 27.5954C15.6463 29.8381 15.4503 31.7367 15.366 31.8217C15.1687 32.0529 14.8312 32.0237 14.5795 31.7938V31.7674ZM17.4437 31.6824C17.3036 31.4804 17.1906 30.2727 16.9947 27.3683C16.7702 23.9165 16.7416 22.9387 16.8546 20.3519C16.9103 18.711 17.0233 15.4626 17.1076 13.1321C17.192 10.803 17.2764 8.76094 17.3049 8.5311C17.4179 7.78307 18.2601 7.66884 18.4288 8.38762C18.4574 8.5311 18.6261 12.0108 18.7949 16.0936L19.1037 23.5432L18.7949 27.3976C18.6855 28.7297 18.5826 30.0623 18.486 31.3954C18.486 31.6239 18.12 31.9415 17.8683 31.9415C17.7267 31.9415 17.5594 31.8259 17.4464 31.6545V31.6824H17.4437ZM20.3664 31.7395C20.1691 31.5375 20.1133 31.2213 20.0576 29.7267C20.0004 28.7488 19.9161 27.282 19.8603 26.4768C19.6915 24.4361 19.7188 21.7895 19.9161 15.4904C20.029 12.5011 20.1133 9.48111 20.1133 8.73308C20.1419 7.20916 20.2549 6.74948 20.6481 6.63386C21.1257 6.51825 21.4903 6.8637 21.4903 7.46826C21.4903 7.7566 21.6305 11.494 21.772 15.7509L22.0537 23.4875L21.772 27.3697C21.6305 29.4968 21.4903 31.3091 21.4903 31.3968C21.4903 31.6253 21.1243 31.9429 20.844 31.9429C20.7039 31.9429 20.5066 31.8273 20.3664 31.713V31.7395ZM23.2878 31.7395C23.1476 31.5668 23.0633 31.2213 23.0061 30.6753C22.5843 24.1185 22.5843 23.6575 22.7816 16.8137C23.0347 7.38189 23.0905 6.48899 23.315 6.25915C23.5395 6.02931 24.1586 6.02931 24.3545 6.25915C24.4675 6.37477 24.5518 8.04216 24.692 11.7809C25.0294 22.2199 25.058 23.8873 24.8321 27.3098C24.5791 31.1921 24.5518 31.5361 24.2988 31.766C24.0457 32.0251 23.5966 31.9972 23.315 31.7089L23.2878 31.7395ZM26.2091 31.7103C26.069 31.5654 25.956 31.2506 25.956 31.0486C25.956 30.8466 25.8717 29.1221 25.7587 27.2235C25.5614 24.0322 25.5614 23.1393 25.7587 15.4041C25.9833 6.43188 25.9833 6.57536 26.6296 6.43188C27.1915 6.31626 27.5575 6.8052 27.5575 7.69671C27.5575 8.09928 27.6133 10.1985 27.6705 12.327C27.7263 14.4554 27.8106 17.7039 27.8678 19.5468C27.8963 21.359 27.9521 22.9401 27.9807 23.0264C28.0093 23.1128 27.9236 24.9237 27.7834 27.0521C27.6882 28.4323 27.6038 29.8133 27.5303 31.1949C27.5303 31.5389 27.0813 32 26.6881 32C26.5848 31.9909 26.4845 31.9607 26.3928 31.9112C26.3012 31.8617 26.2202 31.7938 26.1547 31.7117H26.2091V31.7103ZM29.2148 31.7395C28.9618 31.4804 28.9332 31.1642 28.6815 26.5632C28.5413 23.8887 28.5685 21.0707 28.8216 11.9536C28.9631 7.06568 28.9631 6.97932 29.721 6.97932C29.9741 6.97932 30.2272 7.06569 30.3673 7.23841C30.6204 7.49751 30.6204 7.69809 30.732 11.8965C30.7605 13.2185 30.8735 16.4404 30.9293 19.0286C31.0422 23.2549 31.0422 24.1478 30.8163 27.6274C30.5918 31.3662 30.5633 31.5097 30.283 31.7395C29.9169 32.0265 29.4679 32.0265 29.159 31.7395H29.2148ZM32.192 31.7395C32.0232 31.5668 31.9389 31.2506 31.8831 30.6753C31.6858 28.4604 31.5457 22.9679 31.6014 19.7181C31.63 17.7053 31.7144 14.6282 31.7429 12.8159C31.8831 5.54037 31.9402 4.39117 32.192 4.13207C32.5008 3.81587 33.1186 3.81587 33.4002 4.13207C33.7091 4.44828 33.7377 5.36904 34.018 19.4033C34.1023 23.631 33.8207 31.05 33.5404 31.5668C33.2873 32.0571 32.5566 32.1421 32.1634 31.7395H32.192ZM35.2548 31.7103C35.0478 31.5475 34.9076 31.3116 34.8616 31.0486C34.833 30.8174 34.7201 28.948 34.6085 26.878C34.4684 23.9165 34.4398 22.1335 34.5242 18.509C34.5813 15.9794 34.6657 11.7809 34.7214 9.19276C34.8058 3.26843 34.863 2.69313 35.199 2.34767C35.5651 2.00221 36.0984 2.03146 36.4917 2.40478C36.7733 2.69313 36.8005 2.80735 36.8291 4.27416C36.8291 5.13641 36.8577 5.99866 36.8849 6.17139C36.9121 6.34412 36.9421 8.7888 36.9978 11.6054C37.055 14.4234 37.1108 16.7539 37.1394 16.7831C37.2795 17.0129 37.1679 25.3527 36.9978 27.9409C36.9209 28.9946 36.8551 30.0491 36.8005 31.1043C36.8005 31.4205 36.2386 31.9666 35.8739 31.9666C35.7038 31.9694 35.4222 31.8551 35.2548 31.7103ZM37.9789 31.6531L37.6686 31.3355V1.60103L38.0061 1.34194C38.3993 1.02573 39.8879 0.536796 41.3778 0.22059C42.9793 -0.095616 45.5918 -0.0677559 47.2491 0.277703C53.8769 1.6874 58.597 6.89295 59.6652 13.9665L59.7495 14.4262L60.8462 14.11C61.7728 13.8509 62.1103 13.7938 63.3172 13.8509C65.0316 13.9372 65.1146 13.9372 66.2372 14.3677C71.1832 16.2942 73.4283 22.1321 71.0417 26.9644C69.945 29.2071 68.372 30.6154 65.9841 31.5083L65.086 31.8537L51.7148 31.883L38.3435 31.9122L37.9789 31.6531ZM11.6296 31.5375C11.5738 31.3941 11.4051 29.4954 11.2364 27.3377C10.9547 23.5418 10.9547 23.3691 11.152 20.9551C11.2649 19.6025 11.3779 17.9351 11.4337 17.2734C11.518 16.0657 11.7153 15.489 12.0242 15.489C12.4174 15.489 12.5304 15.9501 12.8678 19.6025L13.2053 23.3412L12.8678 27.3112C12.6991 29.4954 12.5018 31.3954 12.446 31.5668C12.3902 31.7688 12.2487 31.8551 12.0242 31.8551C11.7997 31.8551 11.6868 31.7688 11.6024 31.5668L11.6296 31.5375ZM8.82119 31.596C8.79262 31.5375 8.59668 29.6974 8.42796 27.5118L8.09051 23.5418L8.42796 19.4298C8.59668 17.1578 8.82119 15.2299 8.87834 15.145C9.04706 14.943 9.30015 14.943 9.46887 15.145C9.55323 15.2313 9.77774 17.13 9.97503 19.4019L10.3397 23.4861L9.97503 27.4547C9.77774 29.6403 9.5818 31.4818 9.55323 31.5668C9.49744 31.7395 8.90691 31.798 8.82255 31.6239V31.596H8.82119ZM6.03999 31.2798C5.9842 31.1935 5.78691 29.4397 5.61818 27.3683L5.28074 23.6003L5.58961 20.0343C5.75833 18.08 5.92706 16.2092 5.95427 15.9222C6.03863 15.3469 6.29171 15.1171 6.5448 15.3748C6.62916 15.4612 6.85367 17.1578 7.07954 19.4298L7.47277 23.3412L7.10675 27.1093C6.90946 29.1792 6.68495 30.9915 6.62916 31.1628C6.48901 31.4804 6.20735 31.5375 6.03863 31.3077V31.2798H6.03999ZM3.20301 30.0721C3.17443 29.9565 2.9785 28.3755 2.80977 26.5925L2.47233 23.3426L2.83699 20.0357C3.17443 16.8723 3.23022 16.7288 3.4833 16.6717C3.79217 16.6132 3.7636 16.4697 4.26977 20.4675L4.63442 23.4569L4.26977 26.5925C4.07247 28.3184 3.84796 29.8423 3.79217 30.0136C3.65066 30.3591 3.34179 30.3897 3.25743 30.0721H3.20301ZM0.590529 27.6553C0.457928 26.94 0.345401 26.2209 0.253084 25.499L0 23.5432L0.281658 21.4733C0.421806 20.3227 0.619103 19.3155 0.67489 19.2306C0.955187 18.8851 1.15248 19.4325 1.43278 21.4733L1.74165 23.5432L1.43278 25.6132C1.26406 26.7638 1.03955 27.7403 0.955187 27.7988C0.730677 27.9423 0.646316 27.9144 0.561955 27.6832L0.590529 27.6553Z" fill="white"/>
</svg>
