<svg width="72" height="49" viewBox="0 0 72 49" fill="none" xmlns="http://www.w3.org/2000/svg">
<path d="M12.5852 1H12.73C13.8346 2.27618 15.0833 3.40652 16.2599 4.62801L24.2609 12.6862V12.832C20.3875 16.7153 16.5314 20.635 12.6576 24.5182C8.76571 20.6168 4.89191 16.6971 1 12.7956C1.19948 12.4127 1.57926 12.1575 1.86889 11.8476C5.43496 8.21955 9.05534 4.64624 12.5852 1ZM35.9366 1H36.0815C36.1904 1.16408 36.2987 1.30993 36.4435 1.45578C40.1906 5.19317 43.8837 8.98526 47.6667 12.7044C47.5762 12.9232 47.377 13.069 47.2141 13.2331C43.4674 16.9888 39.738 20.7626 35.991 24.5182C32.0809 20.635 28.2433 16.6788 24.3152 12.8138C28.1166 8.82118 32.1171 4.9744 35.9366 1ZM59.2881 1H59.4329C60.157 1.8751 61.0078 2.62258 61.7861 3.44298C64.7186 6.39643 67.6334 9.33165 70.5656 12.2851C70.7107 12.4492 70.9461 12.595 71 12.832C67.0719 16.6788 63.2705 20.6714 59.3243 24.5182L48.1916 13.3061C48.0106 13.1055 47.7753 12.9597 47.6848 12.7044C49.6579 10.7719 51.5767 8.78472 53.5317 6.83398C55.4505 4.88324 57.4055 2.9872 59.2881 1ZM24.4781 36.095C28.2976 32.2483 32.1353 28.4015 35.9548 24.5365L36.1173 24.6094C39.9549 28.4926 43.7925 32.3759 47.6663 36.2227C47.54 36.5144 47.2684 36.6784 47.0689 36.9154C44.2816 39.7048 41.4936 42.5306 38.7059 45.32C37.8008 46.1951 36.9319 47.1796 36.0091 48C34.6876 46.7967 33.4748 45.4476 32.1892 44.2079C29.5829 41.5826 26.9943 38.9573 24.3695 36.3503C24.4058 36.2773 24.4419 36.168 24.4781 36.095Z" fill="#9C9C9C" stroke="black" stroke-width="0.161675"/>
</svg>
