<svg width="48" height="55" viewBox="0 0 48 55" fill="none" xmlns="http://www.w3.org/2000/svg">
<path opacity="0.6" fill-rule="evenodd" clip-rule="evenodd" d="M46.613 22.3206C47.0735 22.3186 47.5337 22.2957 47.992 22.252H48V13.1004C44.4992 12.8494 41.1997 11.3999 38.6785 9.00515C36.1573 6.61042 34.5749 3.42293 34.2078 0H26.1735L26.0895 38.3977C26.0895 43.1087 21.8465 46.8203 17.0419 46.8203C14.7351 46.8203 12.5228 45.9218 10.8916 44.3224C9.26047 42.723 8.34409 40.5538 8.34409 38.2919C8.34409 36.03 9.26047 33.8607 10.8916 32.2613C12.5228 30.6619 14.7351 29.7634 17.0419 29.7634C17.3094 29.7634 17.5681 29.7981 17.827 29.8328C17.9162 29.8448 18.0055 29.8567 18.0952 29.8673V21.6328C18.0121 21.6276 17.9292 21.622 17.8462 21.6163C17.5798 21.5981 17.3132 21.5798 17.0419 21.5798C13.6714 21.5798 10.3765 22.5599 7.57394 24.396C4.77141 26.2321 2.58711 28.8419 1.29725 31.8952C0.00738377 34.9486 -0.330103 38.3085 0.327464 41.5499C0.98503 44.7913 2.60812 47.7688 4.99147 50.1057C7.37483 52.4427 10.4114 54.0341 13.7172 54.6789C17.023 55.3237 20.4496 54.9928 23.5636 53.728C26.6776 52.4633 29.3392 50.3215 31.2118 47.5735C33.0844 44.8256 34.0839 41.5949 34.0839 38.2899V15.6812C35.4459 17.7209 37.3044 19.3959 39.4918 20.555C41.6792 21.7142 44.1266 22.3209 46.613 22.3206Z" fill="white"/>
</svg>
