<svg width="58" height="48" viewBox="0 0 58 48" fill="none" xmlns="http://www.w3.org/2000/svg">
<path d="M58 6.01282C55.8661 6.96016 53.5727 7.59816 51.1657 7.88574C53.6234 6.41399 55.5108 4.08191 56.3978 1.30274C54.0995 2.66574 51.5523 3.65657 48.8408 4.19066C46.6731 1.87791 43.5773 0.432739 40.1553 0.432739C32.4727 0.432739 26.8274 7.60057 28.5626 15.0415C18.676 14.5461 9.90833 9.80941 4.03825 2.61016C0.92075 7.95824 2.4215 14.9545 7.71883 18.4973C5.771 18.4345 3.93433 17.9004 2.33208 17.0087C2.20158 22.5211 6.15283 27.6782 11.8755 28.8262C10.2008 29.2805 8.3665 29.3868 6.50083 29.0292C8.01367 33.7562 12.4072 37.1951 17.6175 37.2917C12.615 41.214 6.31233 42.9661 0 42.2217C5.26592 45.5978 11.5227 47.5674 18.241 47.5674C40.3342 47.5674 52.8162 28.9083 52.0622 12.1729C54.3871 10.4933 56.405 8.39807 58 6.01282Z" fill="#9C9C9C"/>
</svg>
