<svg width="56" height="50" viewBox="0 0 56 50" fill="none" xmlns="http://www.w3.org/2000/svg">
<path d="M29.1309 0.991943C32.6562 2.71788 35.6489 4.55674 38.3011 6.19638C44.1692 9.8251 47.1145 11.4115 55.1274 11.4115V4.67394C48.962 4.67394 47.0104 4.16681 41.8699 0.991943H29.1309Z" fill="#CFCFCF"/>
<path d="M16.8233 44.7935C10.9581 41.1669 8.01394 39.5869 0 39.5869V46.3244C6.16736 46.3244 8.11703 46.8262 13.2575 50H25.9955C22.4691 48.2741 19.4754 46.4342 16.8233 44.7935Z" fill="#CFCFCF"/>
<path d="M55.1262 17.5364C45.4649 17.5364 41.3957 15.0199 35.2334 11.2101C27.5106 6.43396 17.9007 0.991943 0 0.991943L0.00101071 7.73587C16.2533 7.73587 24.7058 12.1104 32.1649 16.7235C38.6759 20.7496 43.8164 24.2739 55.1262 24.2739V17.5364ZM55.1262 43.2624C38.874 43.2624 30.4214 38.3797 22.9614 33.7666C16.4514 29.7405 11.3119 26.7243 0 26.7243L0.00101071 33.4619C9.66342 33.4619 13.7325 35.4701 19.8938 39.28C27.6157 44.0561 37.2276 49.9999 55.1273 49.9999L55.1262 43.2624Z" fill="#CFCFCF"/>
<path d="M55.1273 37.2152C40.5215 37.2152 33.1544 32.6585 26.0299 28.2521C19.3086 24.096 12.9583 20.5993 0 20.5993L0.00101071 13.8618C14.6068 13.8618 21.9739 18.3333 29.0984 22.7397C35.8196 26.8958 42.1699 30.4713 55.1273 30.4713V37.2152Z" fill="#CFCFCF"/>
</svg>
