<svg width="54" height="49" viewBox="0 0 54 49" fill="none" xmlns="http://www.w3.org/2000/svg">
<g opacity="0.6">
<path d="M53.9985 16.206C44.5348 16.206 40.5489 13.741 34.5126 10.0091C26.9478 5.33069 17.5345 0 0 0L0.000990035 6.60596C15.9208 6.60596 24.2004 10.891 31.5069 15.4097C37.8847 19.3535 42.92 22.8057 53.9985 22.8057V16.206Z" fill="#CFCFCF"/>
<path d="M53.9985 41.4057C38.0787 41.4057 29.7991 36.6229 22.4916 32.1041C16.1148 28.1604 11.0805 25.206 0 25.206L0.000990035 48.0054H53.9985V41.4057Z" fill="#CFCFCF"/>
<path d="M53.9995 35.4823C39.6925 35.4823 32.4761 31.0189 25.4974 26.7025C18.9136 22.6315 12.6932 19.2064 0 19.2064L0.000990035 12.6067C14.308 12.6067 21.5244 16.9867 28.5031 21.303C35.0869 25.374 41.3072 28.8764 53.9995 28.8764V35.4823Z" fill="#CFCFCF"/>
</g>
</svg>
