<svg width="64" height="44" viewBox="0 0 64 44" fill="none" xmlns="http://www.w3.org/2000/svg">
<path d="M62.0954 7.00003C61.371 4.32003 59.2381 2.20003 56.5417 1.48003C51.6722 0.160034 32.0734 0.160034 32.0734 0.160034C32.0734 0.160034 12.4746 0.200034 7.60514 1.52003C4.90879 2.24003 2.77587 4.36003 2.05148 7.04003C0.763672 11.88 0.763672 22 0.763672 22C0.763672 22 0.763672 32.12 2.09172 37C2.81611 39.68 4.94904 41.8 7.64538 42.52C12.5149 43.84 32.1137 43.84 32.1137 43.84C32.1137 43.84 51.7125 43.84 56.582 42.52C59.2783 41.8 61.4112 39.68 62.1356 37C63.4637 32.16 63.4637 22 63.4637 22C63.4637 22 63.4234 11.88 62.0954 7.00003Z" fill="white"/>
<path d="M25.8359 31.36L42.0945 22L25.8359 12.64V31.36Z" fill="black"/>
</svg>
